<?xml version="1.0" standalone="no"?>
<!DOCTYPE svg PUBLIC "-//W3C//DTD SVG 20010904//EN"
 "http://www.w3.org/TR/2001/REC-SVG-20010904/DTD/svg10.dtd">
<svg version="1.0" xmlns="http://www.w3.org/2000/svg"
 width="904.000000pt" height="904.000000pt" viewBox="0 0 904.000000 904.000000"
 preserveAspectRatio="xMidYMid meet">
<metadata>
Created by potrace 1.11, written by Peter Selinger 2001-2013
</metadata>
<g transform="translate(0.000000,904.000000) scale(0.100000,-0.100000)"
fill="#000000" stroke="none">
<path d="M3631 8940 c0 -14 6 -33 13 -43 13 -16 14 -15 18 12 2 17 1 36 -4 43
-5 9 -8 7 -9 -7 l0 -20 -9 20 c-8 18 -9 18 -9 -5z"/>
<path d="M3906 8941 c-3 -5 3 -11 14 -14 20 -5 28 -27 10 -27 -5 0 -10 -6 -10
-12 0 -7 -10 -14 -23 -14 -42 -3 -95 -46 -113 -94 -10 -25 -19 -47 -21 -49 -4
-6 -102 47 -133 72 -20 16 -21 19 -5 13 11 -4 24 -8 30 -9 5 -1 16 -9 23 -17
8 -8 11 -10 8 -4 -3 7 0 14 8 17 9 4 12 14 9 28 -4 16 -2 20 8 17 16 -5 38 30
31 50 -6 17 -15 15 -40 -8 -12 -12 -22 -33 -22 -47 l0 -26 -20 23 c-11 13 -20
29 -20 37 0 8 -9 23 -19 35 -22 23 -71 19 -71 -7 0 -8 -4 -15 -8 -15 -5 0 -28
-18 -52 -40 -24 -22 -50 -38 -57 -36 -8 3 -13 -2 -13 -14 0 -10 -5 -22 -11
-26 -7 -4 -9 0 -5 12 10 33 -8 48 -41 36 -19 -6 -36 -6 -46 0 -9 5 -17 5 -17
0 0 -5 -21 -7 -46 -6 -49 3 -94 -10 -106 -29 -4 -7 -11 -12 -15 -13 -4 0 -15
-3 -23 -6 -63 -22 -90 -28 -104 -22 -10 4 -16 1 -16 -9 0 -8 -9 -14 -22 -14
-45 -1 -50 -3 -44 -19 4 -9 1 -23 -5 -30 -9 -12 -6 -13 20 -8 21 4 31 3 31 -5
0 -7 -4 -10 -9 -6 -6 3 -15 -5 -22 -17 -7 -13 -18 -27 -25 -31 -8 -4 -15 -25
-15 -45 -1 -37 -1 -37 -14 13 -12 45 -18 47 -17 5 1 -8 -4 -3 -11 13 -11 28
-27 36 -27 14 0 -7 -11 -21 -25 -31 -13 -10 -22 -22 -19 -27 2 -5 -3 -34 -13
-66 l-17 -58 -11 83 c-9 74 -13 86 -38 104 -15 11 -35 17 -43 14 -9 -4 -23 -1
-30 5 -11 9 -14 7 -14 -12 -1 -30 -20 -54 -42 -54 -24 0 -100 -62 -129 -105
-20 -30 -24 -32 -27 -15 -3 11 -10 24 -17 30 -8 5 -16 21 -19 35 -3 14 -3 -4
-1 -39 4 -70 -7 -111 -28 -111 -8 0 -25 -9 -38 -20 -13 -11 -29 -24 -35 -28
-22 -19 -55 -33 -64 -27 -6 3 -15 -5 -21 -19 -9 -18 -23 -27 -53 -32 -22 -4
-43 -8 -46 -9 -56 -13 -70 -18 -70 -27 0 -6 3 -8 6 -5 4 4 19 0 33 -7 14 -8
34 -17 44 -20 10 -3 17 -15 17 -28 0 -18 -2 -20 -10 -8 -8 13 -14 13 -42 2
-18 -8 -48 -18 -66 -23 -18 -6 -36 -17 -39 -25 -3 -8 -9 -14 -15 -14 -5 0 -6
5 -3 11 11 16 -67 -26 -94 -52 -13 -12 -34 -23 -47 -25 -24 -2 -127 -65 -139
-84 -3 -5 -19 -16 -37 -24 -33 -17 -42 -12 -74 41 -7 10 -15 15 -19 11 -4 -3
3 -16 14 -27 27 -27 27 -58 1 -66 -11 -3 -20 -10 -20 -15 0 -14 -49 -60 -65
-60 -7 0 -21 -23 -31 -52 -9 -29 -23 -62 -29 -73 -7 -11 -20 -41 -30 -67 -26
-70 -39 -77 -77 -39 -38 37 -50 39 -42 7 3 -13 1 -27 -6 -31 -6 -4 -8 -16 -4
-27 4 -15 3 -18 -6 -13 -9 6 -11 4 -5 -4 4 -8 -1 -18 -14 -27 -14 -11 -21 -26
-21 -50 0 -19 -4 -34 -10 -34 -5 0 -10 -6 -10 -14 0 -23 -31 -42 -76 -45 -6
-1 -9 -11 -7 -23 3 -17 -7 -34 -34 -60 -54 -52 -65 -61 -95 -77 -36 -18 -77
-124 -60 -152 17 -26 15 -66 -3 -76 -8 -5 -16 -25 -17 -45 -2 -20 -6 -34 -10
-32 -4 3 -10 -12 -14 -33 -3 -21 -12 -47 -19 -58 -7 -11 -12 -22 -11 -25 1 -3
-7 -19 -18 -34 -14 -23 -17 -40 -12 -85 3 -31 9 -88 13 -128 3 -40 10 -70 14
-67 5 3 9 -4 9 -15 0 -11 5 -23 10 -26 6 -3 10 -14 10 -25 0 -22 25 -34 27
-11 0 9 6 36 12 61 l10 45 -5 -54 c-3 -30 -7 -68 -10 -85 -4 -21 -3 -27 4 -18
7 11 10 9 15 -7 3 -12 1 -19 -3 -16 -15 9 -16 -146 -2 -280 7 -71 13 -142 13
-157 -1 -16 3 -28 9 -28 5 0 10 -13 10 -28 0 -28 47 -289 75 -417 15 -66 38
-134 87 -250 12 -27 25 -66 29 -85 9 -42 90 -262 114 -307 10 -20 24 -33 35
-33 10 0 22 -5 25 -10 4 -6 23 -17 43 -26 20 -9 32 -18 25 -21 -7 -2 -9 -11
-6 -19 3 -8 -1 -14 -8 -15 -8 0 -5 -4 6 -9 l20 -9 -20 -2 c-11 -1 -35 -3 -52
-5 -43 -3 -96 -37 -113 -71 -39 -80 -42 -274 -6 -391 9 -29 14 -58 10 -65 -5
-8 -2 -7 9 2 19 15 24 2 6 -16 -18 -18 -28 -83 -17 -115 12 -34 25 -27 30 16
4 35 24 45 33 16 3 -11 11 -18 16 -15 13 9 11 112 -3 134 -9 15 -7 24 10 45
11 15 24 41 28 59 3 17 14 43 23 56 9 14 16 28 16 31 0 3 4 3 10 1 5 -2 28 -8
50 -14 22 -5 46 -11 53 -13 21 -6 13 -23 -13 -30 -14 -3 -25 -12 -25 -20 0 -8
-3 -14 -8 -14 -10 0 -52 -93 -52 -116 0 -11 -7 -38 -15 -62 -13 -38 -13 -47 0
-78 8 -20 15 -44 15 -54 0 -20 26 -34 43 -23 7 4 19 6 29 5 9 -2 22 5 30 16
34 48 139 95 124 56 -3 -9 -6 -21 -6 -29 0 -7 -9 -15 -20 -18 -16 -4 -19 -13
-18 -53 1 -70 32 -120 69 -109 24 8 64 -14 124 -69 28 -25 60 -46 71 -46 26 0
34 -17 23 -47 -10 -26 -21 -28 -50 -10 -17 10 -22 9 -34 -6 -9 -13 -20 -17
-34 -12 -16 5 -21 2 -21 -11 0 -14 -3 -15 -12 -6 -16 16 -38 15 -38 -2 0 -20
26 -27 56 -15 15 5 29 8 31 5 3 -2 23 2 45 10 50 18 48 18 48 -5 0 -25 20 -38
21 -14 0 10 5 2 10 -17 5 -19 17 -52 26 -72 18 -44 11 -84 -17 -91 -13 -3 -22
-17 -26 -36 -5 -26 -10 -30 -26 -25 -14 4 -21 0 -24 -14 -4 -14 -12 -18 -32
-15 -21 4 -24 2 -12 -6 13 -10 13 -11 0 -11 -8 -1 -3 -7 12 -16 19 -10 44 -13
82 -9 55 5 55 5 54 -23 -1 -30 17 -72 32 -72 5 0 9 9 9 20 1 11 1 29 2 40 0
11 5 18 10 14 6 -3 9 2 7 11 -2 10 4 20 12 22 13 4 13 3 1 -6 -12 -8 -10 -11
12 -16 16 -4 27 -14 27 -24 0 -14 -2 -14 -10 -1 -8 13 -11 12 -24 -5 -26 -35
-27 -56 -3 -53 17 2 23 -3 25 -21 4 -23 3 -23 -13 -7 -23 22 -30 13 -17 -21 6
-15 14 -48 18 -73 3 -25 11 -51 16 -57 7 -9 7 -13 0 -13 -13 0 -13 -53 0 -61
6 -4 13 -47 15 -96 4 -72 2 -93 -11 -105 -11 -11 -12 -18 -3 -27 17 -17 26
-13 20 9 -3 12 0 20 6 20 7 0 9 -5 6 -10 -3 -6 1 -10 9 -10 9 0 16 -4 16 -10
0 -5 -4 -10 -10 -10 -5 0 -10 -7 -10 -15 0 -9 -7 -18 -16 -22 -13 -5 -13 -7
-2 -14 19 -13 28 -11 22 4 -3 8 1 19 9 26 20 16 40 -10 32 -42 -6 -23 -9 -24
-36 -15 -17 6 -33 8 -36 5 -3 -3 7 -9 22 -13 22 -5 26 -11 21 -30 -6 -23 1
-29 31 -25 6 1 14 -3 18 -9 4 -6 -4 -10 -19 -10 -31 0 -43 -16 -13 -17 55 -1
60 -3 48 -16 -6 -8 -8 -17 -4 -20 10 -11 -16 -8 -38 3 -10 6 -19 8 -19 6 0 -3
14 -13 31 -21 24 -13 28 -19 19 -30 -19 -23 7 -73 34 -68 21 4 21 4 2 -11 -11
-9 -25 -17 -30 -17 -6 -1 5 -4 24 -8 33 -6 35 -8 38 -51 2 -24 8 -47 13 -51
22 -13 -30 -46 -64 -40 -5 1 -6 -3 -2 -9 3 -5 17 -7 31 -4 33 9 83 -4 64 -16
-8 -5 -25 -7 -37 -3 -14 3 -23 1 -23 -6 0 -6 17 -11 38 -11 27 0 33 -3 22 -10
-12 -8 -13 -10 -1 -10 11 0 9 -6 -6 -22 -15 -16 -20 -31 -16 -51 6 -33 14 -39
33 -27 12 7 12 12 2 22 -29 29 -9 26 24 -4 35 -32 36 -33 12 -39 -14 -5 -17
-7 -6 -8 9 -1 20 -10 23 -21 3 -11 11 -20 16 -20 5 0 9 -4 9 -10 0 -5 -7 -10
-15 -10 -18 0 -18 -5 -5 -31 9 -16 7 -21 -12 -29 -22 -8 -22 -9 5 -9 28 -1 37
-15 15 -24 -7 -3 -4 -6 6 -6 11 -1 16 -4 13 -8 -4 -3 -1 -13 6 -22 8 -9 21
-35 30 -58 17 -43 17 -43 -5 -43 l-22 0 22 -16 c12 -8 26 -13 30 -10 5 3 9
-11 10 -30 1 -20 -3 -32 -8 -29 -6 3 -10 1 -10 -4 0 -6 5 -11 10 -11 6 0 10
-11 10 -25 0 -19 -4 -23 -17 -18 -16 6 -15 3 2 -17 14 -16 16 -24 8 -27 -18
-6 -16 -23 2 -23 18 0 61 -43 70 -70 4 -13 15 -20 31 -20 15 0 24 -6 24 -16 0
-12 -7 -15 -25 -12 -29 6 -32 -4 -9 -23 12 -10 20 -10 35 -1 10 7 19 8 19 3 0
-5 -6 -12 -12 -14 -10 -4 -9 -8 2 -16 22 -16 30 -13 24 6 -5 17 -5 17 6 0 6
-9 8 -27 5 -38 -5 -15 -4 -19 4 -15 6 4 11 0 11 -8 0 -9 5 -16 11 -16 5 0 7
-5 3 -11 -4 -8 -9 -7 -15 2 -12 20 -16 8 -10 -26 l6 -29 23 24 22 24 0 -37 c0
-36 19 -54 21 -19 0 16 1 16 8 -1 9 -24 14 -25 36 -7 17 14 18 13 13 -12 -3
-17 0 -32 8 -39 8 -6 14 -20 14 -30 0 -13 10 -20 36 -25 24 -4 38 -14 44 -29
5 -13 14 -25 19 -26 6 -2 13 -15 16 -27 3 -18 1 -22 -11 -18 -9 3 -18 6 -20 6
-3 0 -3 4 1 9 3 5 0 13 -6 17 -8 5 -9 3 -4 -6 6 -10 4 -11 -11 -6 -10 5 -28
11 -39 14 -17 5 -18 3 -7 -10 10 -13 9 -16 -10 -21 l-22 -6 24 -21 c27 -24 34
-25 53 -6 9 9 19 11 28 5 8 -5 10 -9 4 -10 -5 0 -1 -5 10 -10 18 -8 17 -9 -5
-5 -23 5 -25 2 -25 -32 0 -31 -4 -38 -23 -40 -13 -2 -37 5 -55 15 -45 27 -80
35 -73 18 4 -12 0 -12 -19 -3 -14 6 -25 15 -25 19 0 4 -13 7 -28 7 -18 -1 -29
-6 -29 -15 0 -8 6 -12 14 -9 21 8 17 -4 -47 -129 -33 -66 -58 -121 -56 -123 2
-2 31 51 65 117 41 79 67 121 78 121 14 0 15 -2 1 -17 -18 -22 -144 -272 -129
-258 6 6 38 65 72 130 58 115 90 152 103 119 6 -16 -43 -124 -56 -124 -11 0
-11 1 17 64 41 93 20 63 -39 -54 -54 -110 -67 -145 -25 -70 13 22 27 36 31 32
5 -5 -3 -30 -18 -55 -14 -26 -23 -47 -20 -47 2 0 17 22 33 49 15 27 31 47 36
44 4 -2 -10 -38 -33 -79 -22 -41 -39 -74 -36 -74 6 0 45 66 82 138 18 37 35
59 39 52 4 -6 1 -21 -7 -33 -18 -29 -39 -77 -33 -77 3 0 18 25 33 57 16 31 32
51 35 46 6 -9 -44 -114 -105 -223 -13 -22 -14 -28 -3 -15 9 11 36 57 61 103
59 108 85 110 29 2 -9 -17 -13 -30 -11 -30 3 0 19 27 37 60 17 33 36 60 41 60
5 0 -9 -35 -31 -77 -22 -42 -39 -79 -36 -81 2 -2 14 16 26 40 26 51 59 96 59
79 0 -11 -93 -193 -113 -221 -9 -12 -8 -13 2 -4 15 14 101 166 132 234 12 27
26 47 30 44 8 -4 -52 -135 -105 -230 -15 -26 -24 -49 -22 -51 2 -3 9 4 14 14
15 29 88 164 113 211 19 35 21 47 12 61 -9 15 -9 23 2 37 8 11 15 14 15 7 0
-6 -5 -15 -10 -18 -15 -9 -2 -25 15 -18 9 3 15 -1 15 -8 0 -8 9 -3 20 11 11
14 20 20 20 14 0 -6 -11 -24 -25 -40 -14 -16 -23 -21 -19 -11 12 33 -7 17 -22
-19 -10 -25 -12 -40 -5 -48 8 -9 5 -23 -8 -49 -19 -37 -33 -41 -24 -7 3 10 11
21 19 24 15 6 8 36 -9 36 -6 0 -8 -3 -4 -6 3 -4 -8 -33 -24 -66 -17 -33 -28
-62 -26 -65 3 -2 11 9 18 26 15 33 33 31 24 -2 -3 -12 6 -1 20 26 14 26 31 47
38 47 7 0 8 -3 2 -8 -5 -4 -11 -14 -13 -22 -2 -8 -16 -43 -32 -77 -41 -90 -28
-78 20 17 22 44 46 80 53 79 9 0 9 -2 -1 -6 -6 -2 -10 -9 -6 -14 3 -5 0 -9 -6
-9 -6 0 -9 -3 -7 -7 3 -5 -16 -51 -41 -105 -26 -53 -43 -94 -39 -91 4 2 28 46
53 96 50 100 52 103 59 96 2 -3 -16 -50 -41 -105 -62 -136 -64 -146 -6 -35 61
119 77 105 17 -15 -24 -49 -42 -90 -41 -92 2 -1 21 31 42 72 21 41 43 71 47
67 5 -5 4 -17 -2 -27 -28 -51 -61 -125 -53 -120 10 6 94 170 102 201 4 11 9
15 12 9 4 -6 -15 -59 -42 -117 -26 -59 -46 -107 -44 -107 2 0 19 30 37 67 36
70 58 76 27 6 -37 -84 -29 -84 11 -1 37 79 59 107 59 78 0 -5 -4 -10 -10 -10
-5 0 -10 -8 -10 -17 0 -10 -11 -42 -25 -72 -14 -30 -24 -55 -22 -57 3 -4 43
72 56 109 6 15 15 27 21 27 15 0 14 -4 -25 -87 -19 -42 -33 -78 -31 -81 5 -4
28 43 72 146 8 17 20 32 27 31 9 0 9 -2 0 -6 -7 -2 -13 -13 -13 -22 0 -10 -14
-49 -31 -86 -16 -37 -28 -70 -25 -72 3 -3 10 5 15 18 27 69 53 124 71 146 26
34 25 27 -6 -41 -34 -75 -25 -82 15 -11 35 61 54 76 22 18 -24 -46 -63 -153
-55 -153 3 0 10 14 16 31 6 18 14 27 20 21 5 -5 5 -19 -1 -35 -6 -15 -7 -27
-3 -27 5 0 16 25 26 55 9 30 21 55 27 55 13 0 12 -8 -11 -67 l-19 -51 29 -10
c24 -9 28 -8 23 4 -3 8 0 14 5 14 6 0 13 -8 15 -17 3 -12 7 -8 12 15 4 17 11
32 16 32 5 0 9 8 9 18 1 16 29 75 30 61 0 -3 -9 -32 -20 -65 -11 -32 -20 -61
-20 -64 0 -12 84 -10 92 2 6 10 8 10 8 1 0 -19 1760 -19 1760 -1 0 10 2 10 9
0 5 -9 25 -12 57 -10 48 3 49 4 47 33 -1 17 1 23 3 14 3 -10 14 -19 26 -22 11
-3 17 -10 13 -16 -4 -8 29 -11 106 -11 88 0 110 3 101 12 -14 14 -16 28 -3 28
5 0 13 -9 16 -20 4 -11 15 -20 26 -20 11 0 18 4 15 9 -10 15 33 20 45 5 15
-18 29 -18 29 1 0 19 9 19 32 -2 17 -15 18 -15 18 10 0 14 -4 29 -10 32 -5 3
-10 15 -10 26 0 13 -7 19 -21 19 -12 0 -23 8 -26 20 -3 11 -9 20 -14 20 -12 0
-11 -17 1 -25 14 -8 -6 -45 -24 -45 -8 0 -13 8 -12 18 1 11 -5 16 -16 14 -10
-2 -18 2 -18 8 0 5 7 10 15 10 8 0 15 5 15 10 0 6 -7 10 -15 10 -8 0 -15 8
-15 18 0 9 -9 23 -19 29 -22 14 -24 53 -4 53 7 0 13 7 13 15 0 18 -26 9 -34
-11 -3 -8 -12 -14 -20 -14 -17 0 -39 34 -29 43 8 9 -18 38 -28 31 -5 -3 -9 0
-9 5 0 6 8 11 18 11 14 0 15 2 2 9 -8 6 -18 7 -22 5 -4 -3 -8 2 -8 10 0 9 -4
16 -10 16 -5 0 -10 9 -10 21 0 11 -4 18 -9 15 -5 -4 -7 3 -4 13 3 11 13 21 24
24 15 4 24 -5 40 -44 21 -48 49 -83 49 -61 0 15 -60 116 -71 120 -5 2 -9 13
-9 24 0 16 -3 18 -14 9 -15 -12 -26 4 -26 37 0 13 2 14 9 4 6 -10 10 -9 14 7
3 14 0 21 -9 21 -9 0 -14 11 -14 28 0 15 -7 36 -15 46 -8 11 -15 30 -15 42 0
21 -23 84 -61 171 -11 24 -19 49 -19 56 0 16 -46 112 -73 150 -32 47 -30 23 4
-39 44 -80 92 -211 119 -324 14 -61 40 -271 35 -280 -2 -4 -5 -34 -6 -68 -1
-34 -6 -59 -10 -56 -5 3 -9 -9 -9 -25 0 -17 -5 -31 -11 -31 -6 0 -9 7 -5 15 3
8 2 15 -3 15 -13 0 -22 -59 -12 -78 5 -12 1 -28 -16 -51 -12 -19 -23 -28 -23
-20 0 10 -3 10 -12 1 -10 -10 -10 -15 2 -23 13 -9 13 -10 0 -6 -16 4 -27 47
-12 47 5 0 12 9 15 19 7 26 -16 17 -33 -13 -9 -18 -9 -29 -1 -45 10 -17 9 -21
-4 -21 -8 0 -15 9 -15 19 0 11 -5 23 -11 26 -7 5 -8 25 -4 59 l7 51 -29 -32
c-17 -18 -35 -33 -41 -33 -19 0 -14 71 6 86 15 12 15 13 0 8 -20 -7 -30 31
-24 94 4 32 1 42 -10 42 -8 0 -12 5 -9 11 4 6 10 8 13 5 10 -11 32 17 32 41 0
13 11 39 24 56 30 40 38 86 37 216 -1 99 -33 312 -51 336 -16 20 -22 93 -10
116 27 49 139 180 128 149 -3 -8 -2 -24 2 -35 6 -17 11 -11 30 32 15 35 26 50
36 46 17 -6 19 13 2 20 -10 4 -9 8 2 16 10 7 19 6 28 -2 11 -9 13 -6 12 18 -2
17 0 37 3 45 3 8 8 28 11 43 4 17 11 25 18 21 7 -5 9 0 6 13 -3 12 -2 27 3 34
7 11 9 10 9 -3 0 -10 4 -18 9 -18 6 0 8 9 6 20 -4 22 20 28 29 8 3 -7 3 12 0
42 -6 57 5 90 38 124 12 12 15 26 11 53 -4 23 -3 34 4 30 6 -4 13 9 16 31 10
65 16 85 28 93 6 4 9 11 6 16 -6 9 12 55 49 126 17 34 18 51 3 41 -6 -3 -3 5
6 20 9 14 22 23 27 20 5 -3 2 8 -7 26 -9 17 -14 34 -11 38 3 3 6 0 6 -6 0 -7
7 -9 17 -5 13 5 15 2 10 -11 -4 -10 -3 -15 3 -11 13 8 13 35 0 35 -18 0 -10
37 12 56 19 17 21 17 15 2 -3 -10 -2 -20 3 -23 6 -4 10 9 10 29 0 19 7 42 16
50 8 9 12 21 8 27 -4 8 -3 9 4 5 10 -6 54 72 51 91 -4 24 2 53 10 49 8 -5 51
116 51 144 0 6 5 8 11 4 8 -5 10 1 7 20 -3 14 -1 29 3 32 5 3 9 18 9 34 0 16
4 32 10 35 6 3 10 15 10 25 0 10 5 20 11 22 6 2 12 27 13 55 2 28 10 63 19 76
11 17 16 51 18 116 2 86 3 92 25 97 19 5 21 10 14 29 -5 13 -6 25 -3 28 3 3
-7 18 -21 34 l-27 28 7 -45 c5 -37 4 -43 -7 -33 -30 29 -39 2 -15 -45 13 -26
13 -28 -7 -29 -12 -1 -23 -7 -25 -13 -2 -5 -8 -8 -12 -5 -5 3 -8 -4 -7 -15 1
-11 4 -20 8 -20 9 0 18 -48 11 -55 -7 -7 -41 73 -41 98 -1 28 -45 117 -57 117
-7 0 -15 -7 -18 -16 -9 -22 -8 -24 9 -18 16 7 31 -36 21 -61 -3 -9 -2 -13 4
-10 6 3 10 -3 10 -14 0 -11 5 -23 10 -26 6 -3 10 -10 10 -16 0 -5 -4 -9 -10
-9 -5 0 -10 7 -10 15 0 8 -5 15 -12 15 -6 0 -21 8 -32 17 -20 18 -21 17 -6 -2
17 -23 40 -63 40 -70 0 -2 -7 -2 -15 1 -18 7 -19 1 -1 -58 16 -51 14 -58 -21
-58 -21 0 -28 10 -24 33 1 4 -6 10 -14 13 -8 4 -15 12 -15 19 0 6 -11 23 -24
37 -16 19 -20 30 -14 42 6 11 5 16 -4 16 -15 0 -68 53 -68 68 0 5 -7 15 -15
22 -8 7 -13 16 -10 20 6 10 -46 66 -58 62 -5 -1 -6 2 -2 7 3 6 11 8 18 5 7 -2
20 7 27 22 13 23 13 27 -2 38 -14 10 -14 14 -2 31 20 27 18 32 -16 27 -33 -5
-39 8 -15 32 12 12 13 20 4 40 -7 14 -15 23 -19 21 -4 -2 -27 -1 -51 3 -32 6
-43 12 -41 24 1 9 -4 18 -13 22 -8 3 -15 12 -15 21 0 18 -11 19 -45 3 -31 -14
-32 -26 -2 -38 l22 -9 -22 0 c-40 -1 -25 -51 22 -77 11 -6 20 -18 20 -26 0 -7
13 -29 27 -48 l28 -35 -30 -3 c-18 -2 -30 -9 -30 -17 0 -20 -46 -30 -73 -17
-12 6 -30 13 -40 16 -10 3 -16 10 -12 15 3 5 0 13 -6 17 -8 4 -7 9 2 15 10 6
7 9 -11 9 l-25 1 29 23 c18 15 24 26 17 30 -6 4 -9 12 -6 17 3 5 0 6 -8 3 -11
-4 -13 1 -10 20 3 16 1 26 -6 26 -6 0 -11 7 -11 15 0 8 4 15 8 15 13 0 14 87
2 110 -23 43 -68 16 -156 -94 -19 -24 -35 -36 -42 -32 -9 5 -9 13 2 28 8 11
12 27 9 36 -4 10 -2 13 5 8 8 -5 10 2 5 26 -8 44 -18 55 -58 62 -18 4 -35 10
-37 15 -2 4 -19 11 -38 14 -25 5 -31 4 -20 -3 8 -5 24 -10 35 -11 17 -1 16 -2
-5 -9 -18 -5 -29 -3 -41 10 -19 22 -75 35 -84 21 -3 -6 -24 -11 -46 -11 -22 0
-39 -5 -39 -11 0 -8 -5 -8 -15 1 -9 8 -25 9 -42 4 -16 -4 -32 -6 -37 -5 -4 1
-13 -2 -20 -7 -16 -13 -97 -24 -199 -27 -49 -2 -94 -8 -100 -14 -6 -6 -23 -11
-37 -11 -14 0 -36 -7 -48 -16 -12 -8 -22 -13 -22 -10 0 3 -11 1 -25 -4 -17 -6
-25 -6 -25 1 0 6 -4 8 -9 5 -15 -10 -41 42 -39 75 1 17 6 33 10 35 4 3 8 12 8
20 0 19 66 116 114 168 44 47 106 133 106 146 0 5 22 55 48 112 27 57 58 123
70 148 20 43 48 130 71 215 16 61 64 129 104 148 50 24 143 22 196 -4 52 -25
72 -64 112 -227 16 -61 48 -160 73 -220 24 -59 49 -125 56 -147 18 -56 55
-125 85 -159 21 -23 29 -26 38 -16 9 10 9 14 0 17 -7 3 -13 11 -13 19 0 9 -4
13 -8 10 -4 -2 -8 6 -8 20 0 24 10 32 21 15 15 -25 162 -45 330 -45 331 0 543
57 647 173 61 69 122 206 178 406 28 97 58 188 67 201 8 13 32 29 54 35 21 7
41 19 44 27 14 36 29 273 19 290 -21 33 -450 142 -559 142 l-43 0 0 44 c0 45
-18 110 -37 133 -24 31 -66 73 -71 73 -3 0 -19 9 -35 21 -42 30 -195 34 -270
8 -30 -10 -62 -18 -71 -19 -9 0 -23 -6 -30 -14 -15 -15 -70 -30 -105 -29 -12
0 -20 -3 -18 -7 8 -14 -19 -27 -57 -28 -31 -1 -36 1 -31 16 6 15 4 15 -15 -2
-11 -10 -27 -16 -34 -13 -10 4 -10 6 0 6 6 1 12 8 12 17 0 13 -3 14 -14 5 -11
-10 -15 -8 -19 6 -3 13 -5 11 -6 -7 -1 -14 -6 -32 -12 -40 -9 -13 -10 -13 -8
0 3 35 -3 44 -13 20 -6 -14 -10 -29 -9 -33 1 -5 -3 -6 -9 -2 -5 3 -10 15 -10
26 0 10 -4 19 -10 19 -5 0 -6 -7 -3 -17 4 -10 2 -14 -5 -9 -6 3 -13 2 -16 -3
-3 -5 -14 -8 -24 -6 -9 1 -11 0 -4 -2 6 -3 12 -10 12 -17 0 -16 -52 -28 -77
-19 -12 5 -15 2 -10 -9 4 -11 -1 -18 -15 -21 -11 -3 -18 -9 -15 -14 3 -5 -23
-9 -58 -10 -68 -1 -162 -19 -182 -36 -10 -7 -13 -4 -13 12 0 24 -37 30 -46 7
-7 -19 -56 -17 -71 3 -10 14 -15 13 -43 -14 -27 -25 -31 -27 -28 -10 1 11 -3
20 -9 21 -7 1 -17 2 -23 3 -5 0 -10 5 -10 11 0 5 14 7 30 5 17 -2 30 1 30 7 0
6 -9 8 -20 5 -11 -3 -23 -1 -26 4 -3 5 4 9 15 9 12 0 21 5 21 10 0 15 -36 12
-49 -3 -6 -8 -8 -16 -5 -20 3 -3 -5 -11 -18 -18 -12 -6 -20 -8 -16 -4 12 13
-15 32 -56 39 -21 4 -45 14 -53 21 -7 8 -21 11 -30 8 -11 -4 -14 -2 -9 5 10
17 -23 49 -49 46 -17 -1 -22 2 -18 12 7 20 -17 17 -34 -3 -14 -17 -14 -17 -9
0 3 11 0 17 -9 17 -8 0 -15 5 -15 11 0 5 -4 7 -10 4 -5 -3 -10 -2 -10 3 0 5
-12 8 -27 7 -18 0 -36 8 -51 25 -13 14 -21 19 -17 13 8 -16 0 -16 -28 -1 -12
7 -42 12 -67 13 -31 0 -44 4 -42 13 1 9 -6 10 -24 6 -18 -5 -25 -3 -21 3 8 13
-15 23 -54 23 -17 0 -28 4 -25 9 8 12 -29 21 -94 21 -35 0 -50 3 -41 9 10 6 4
12 -23 21 -19 6 -40 9 -44 6 -5 -3 -35 -1 -66 4 -35 6 -66 6 -82 0 -13 -5 -24
-6 -24 -1 0 13 -94 19 -103 7 -6 -8 -10 -7 -13 1 -4 8 -16 10 -35 6 -23 -4
-29 -2 -29 12 0 9 -6 15 -12 12 -7 -2 -28 2 -46 10 -22 9 -38 10 -50 4 -10 -5
-32 -11 -50 -13 -19 -2 -37 -10 -42 -18 -8 -12 -10 -12 -10 -1 0 7 -19 -4 -42
-26 -118 -110 -132 -124 -120 -118 6 3 12 1 12 -5 0 -6 5 -8 13 -4 9 6 9 4 2
-7 -6 -8 -10 -23 -10 -33 0 -10 -22 -41 -49 -68 -28 -26 -46 -48 -42 -48 10 0
69 41 77 53 4 5 12 6 18 2 8 -4 0 -16 -22 -33 -18 -15 -41 -35 -51 -45 -10 -9
-21 -15 -25 -13 -4 3 -16 -9 -26 -27 -11 -18 -28 -40 -40 -49 -22 -19 -18 -21
35 -22 35 -1 54 -17 28 -24 -9 -2 -8 0 2 7 13 10 13 11 0 10 -27 0 -65 -27
-65 -45 0 -10 -11 -24 -24 -30 -13 -7 -35 -24 -48 -38 l-23 -26 -234 6 c-163
5 -235 3 -240 -4 -6 -11 8 -49 38 -100 11 -19 15 -20 19 -8 4 9 2 16 -3 16 -6
0 -10 4 -10 10 0 17 71 23 147 12 89 -12 106 -24 76 -51 -11 -11 -23 -18 -26
-15 -3 3 -4 -3 -3 -13 0 -10 10 -25 20 -34 19 -15 19 -16 -5 -32 -26 -19 -49
-22 -49 -7 0 6 3 10 8 10 4 0 8 20 9 45 1 25 -2 45 -8 45 -6 0 -8 4 -4 9 8 14
-28 31 -67 31 -38 0 -60 -25 -51 -59 4 -15 1 -21 -11 -21 -9 0 -16 4 -16 9 0
5 -6 11 -14 14 -11 4 -14 -2 -14 -24 1 -16 5 -29 11 -29 6 0 5 -5 -1 -12 -6
-7 -11 -17 -12 -23 -1 -5 -8 -9 -16 -7 -19 4 -17 -8 4 -34 13 -16 38 -23 107
-33 50 -7 119 -16 155 -21 36 -5 93 -15 128 -21 54 -10 62 -15 60 -32 -2 -15
7 -26 37 -41 22 -12 46 -27 54 -34 7 -7 20 -11 27 -8 8 3 14 1 14 -4 0 -6 5
-9 12 -7 8 1 20 -54 38 -168 69 -439 144 -500 655 -535 182 -13 354 -8 524 16
58 8 107 14 110 14 14 -1 -35 -30 -50 -30 -9 0 -20 -7 -23 -16 -4 -9 -13 -14
-21 -10 -8 3 -15 1 -15 -3 0 -13 -72 -86 -92 -94 -10 -3 -18 -13 -18 -22 0 -8
-6 -15 -12 -15 -10 0 -9 -3 1 -9 9 -6 10 -10 2 -16 -7 -3 -9 -15 -6 -24 7 -22
-8 -34 -60 -52 -22 -7 -48 -19 -57 -27 -14 -11 -24 -12 -49 -3 -41 14 -52 14
-43 -1 5 -8 2 -9 -10 -5 -11 4 -19 1 -23 -11 -10 -27 -36 -41 -63 -36 -19 4
-22 3 -10 -5 12 -9 12 -11 -3 -17 -9 -3 -15 -10 -12 -14 3 -4 -2 -10 -10 -14
-8 -3 -14 -15 -12 -27 3 -32 -17 -34 -46 -5 -27 27 -43 20 -32 -14 7 -23 1
-26 -64 -34 -24 -3 -49 -2 -55 4 -16 12 -46 7 -57 -11 -13 -22 -10 -36 4 -17
9 11 18 14 27 8 12 -7 9 -15 -15 -39 -36 -36 -49 -39 -40 -8 6 21 6 21 -9 3
-9 -11 -25 -20 -36 -21 -27 -2 -52 -25 -27 -25 9 0 17 -6 17 -14 0 -21 -23
-34 -45 -26 -11 4 -26 5 -34 2 -10 -4 -13 0 -9 16 4 13 0 23 -9 26 -8 3 -12 2
-9 -3 7 -10 -22 -24 -33 -17 -4 3 -13 -24 -20 -60 -14 -66 -30 -93 -32 -52 -1
19 -2 20 -6 4 -4 -14 -7 -16 -13 -6 -6 10 -14 7 -32 -12 l-23 -26 3 49 c3 40
1 48 -11 43 -8 -3 -21 2 -30 10 -13 13 -16 10 -31 -27 -9 -24 -16 -50 -16 -60
0 -10 -8 -17 -18 -17 -27 0 -32 8 -20 41 8 24 13 27 24 18 16 -13 18 -1 5 20
-7 10 -14 7 -31 -17 -12 -17 -31 -33 -42 -36 -19 -4 -20 -1 -13 50 4 31 3 54
-3 54 -15 0 -39 -33 -46 -64 -12 -48 -30 -14 -28 54 0 33 -3 60 -8 60 -5 0
-14 26 -20 58 -7 31 -15 64 -20 73 -4 9 -4 22 1 30 15 23 10 30 -12 17 -18
-11 -23 -10 -40 11 -15 19 -22 22 -28 12 -15 -24 -19 36 -4 70 10 25 11 34 2
40 -22 13 -35 -1 -33 -39 2 -45 -22 -103 -41 -96 -22 9 -25 46 -7 73 35 51 42
91 27 151 -11 46 -13 49 -14 23 -1 -19 -6 -33 -13 -33 -7 0 -5 -5 5 -11 19
-11 22 -30 8 -57 -5 -9 -14 -30 -20 -46 -15 -36 -24 -29 -12 10 18 56 22 86
11 79 -5 -3 -10 -15 -10 -26 0 -10 -5 -19 -11 -19 -6 0 -8 -9 -4 -20 6 -19
-38 -130 -51 -130 -4 0 -3 7 0 16 4 10 1 14 -6 12 -7 -3 -13 -12 -13 -21 0 -9
-10 -25 -22 -37 -13 -11 -23 -25 -23 -31 0 -6 -7 -17 -15 -25 -19 -19 -19 -13
-2 29 8 18 14 34 15 37 0 3 5 16 10 31 12 30 -2 61 -23 53 -10 -4 -15 0 -15
14 0 11 -2 29 -5 39 -3 10 1 5 9 -11 13 -28 14 -29 24 -9 7 13 8 23 1 30 -11
11 15 88 38 111 11 11 13 9 14 -10 1 -23 1 -23 9 2 4 14 8 34 8 45 0 15 -1 16
-5 4 -2 -10 -12 -19 -23 -22 -10 -2 -27 -25 -38 -51 -12 -25 -23 -46 -25 -46
-2 0 -3 15 -3 34 1 26 4 32 13 24 10 -8 13 -4 13 15 0 14 -5 29 -11 32 -6 5
-4 12 8 21 14 11 15 13 3 14 -13 0 -13 2 -1 9 12 8 11 21 -9 88 -12 43 -25 84
-28 92 -3 9 -1 12 6 7 7 -4 12 -3 12 3 0 5 -5 11 -11 13 -5 2 -12 29 -14 59
-1 31 -8 66 -14 78 -7 11 -9 21 -5 21 3 0 0 8 -7 17 -10 11 -10 14 -1 9 7 -4
12 -2 12 8 0 8 -8 17 -17 19 -17 4 -17 5 0 6 10 0 15 6 12 11 -3 6 -4 10 0 10
3 0 10 -10 15 -22 8 -19 10 -16 7 19 -1 23 1 39 6 36 11 -7 -3 48 -19 74 -47
75 -55 96 -42 104 9 6 5 9 -12 10 -18 1 -20 3 -7 6 10 3 24 -1 32 -7 12 -10
15 -10 15 2 0 7 -23 22 -50 33 -32 13 -50 25 -50 36 0 9 -7 19 -15 23 -19 7
-19 30 0 49 10 10 11 17 4 19 -6 2 -15 43 -19 92 -5 54 -14 94 -24 104 -22 26
-111 68 -243 116 -129 47 -152 68 -139 120 l7 28 210 -7 209 -8 11 32 c6 17
16 28 22 24 7 -4 8 4 4 23 -3 18 0 37 9 48 8 11 14 33 14 49 0 19 4 26 12 21
8 -5 9 -2 5 10 -4 10 -3 34 2 55 6 20 13 49 16 64 3 15 10 25 15 22 6 -3 10 0
10 7 0 7 6 24 13 38 18 34 27 71 16 64 -5 -3 -9 -15 -9 -27 0 -17 -2 -19 -9
-8 -7 11 -11 10 -20 -6 -5 -11 -8 -23 -5 -25 5 -6 -35 -78 -43 -78 -3 0 4 16
15 34 13 23 19 47 17 68 -3 20 -1 28 4 20 6 -10 10 -7 15 13 4 14 4 31 0 36
-3 6 -6 27 -6 47 0 35 -1 35 -15 17 -15 -19 -15 -19 -9 8 6 26 -3 33 -36 28
-10 -1 -10 12 -2 33 3 9 10 13 15 10 5 -3 9 0 9 6 0 8 -9 10 -24 6 -21 -5 -23
-3 -18 16 3 14 2 19 -6 14 -7 -4 -12 -14 -12 -22 0 -17 -16 -19 -26 -2 -4 6
-3 8 3 5 7 -4 12 7 15 28 3 26 1 34 -9 31 -9 -4 -11 6 -9 36 3 23 1 36 -3 29
-6 -9 -10 -7 -14 8 -3 13 -1 19 5 15 6 -4 8 -1 6 7 -3 8 -15 13 -27 12 -18 -2
-20 1 -15 24 5 18 3 24 -4 19 -7 -4 -10 -2 -8 6 3 7 7 27 10 43 5 22 4 26 -4
15 -8 -13 -10 -13 -10 2 0 9 7 24 16 32 10 10 11 16 4 16 -23 0 15 190 53 270
13 27 19 47 14 43 -14 -8 9 29 35 57 13 14 39 45 57 70 19 25 62 74 95 110 34
36 70 78 80 93 10 15 24 27 31 27 7 0 16 8 19 18 20 55 93 132 125 132 10 0
26 9 36 20 11 12 31 20 51 20 24 0 37 6 45 22 l12 22 17 -22 c16 -19 20 -20
30 -7 7 8 18 15 25 15 8 0 16 6 18 13 4 9 6 9 6 -1 1 -10 6 -10 24 -1 12 7 23
12 25 11 1 -1 3 -2 5 -1 61 18 106 25 126 17 13 -4 27 -6 31 -3 5 3 11 1 14
-4 3 -5 23 -7 43 -6 38 4 115 22 100 24 -5 1 -1 8 7 17 9 8 16 22 16 30 0 8 5
12 10 9 6 -3 10 0 10 7 0 7 15 22 33 31 32 17 42 18 149 8 4 -1 14 -8 22 -17
9 -9 16 -11 16 -4 0 6 5 8 10 5 6 -3 13 1 16 9 3 9 12 16 20 16 8 0 14 4 14 9
0 6 9 9 20 8 11 -1 20 -6 20 -12 0 -5 6 1 13 14 6 13 15 23 20 22 4 -1 19 10
33 24 14 14 28 25 32 26 44 4 77 11 92 19 26 14 60 13 60 -2 0 -9 3 -9 12 0
18 18 35 15 58 -10 15 -16 23 -19 28 -11 6 9 22 8 65 -4 45 -13 55 -19 46 -30
-9 -10 -3 -13 32 -13 32 0 40 -3 29 -10 -13 -8 -12 -10 4 -10 12 0 16 -5 13
-14 -3 -8 0 -20 8 -26 11 -9 13 -7 9 13 -2 15 2 32 12 42 19 19 40 15 38 -8
-1 -12 4 -13 28 -5 16 6 40 8 53 6 15 -3 26 0 29 9 3 8 10 12 15 8 5 -3 11 7
13 22 3 25 6 28 38 25 19 -1 38 -9 43 -17 4 -8 13 -15 20 -15 7 0 18 -14 26
-32 12 -27 12 -32 -2 -43 -15 -10 -14 -13 1 -26 19 -16 122 -15 122 2 0 5 -5
9 -11 9 -5 0 -7 5 -4 10 4 6 12 4 21 -5 20 -20 25 -19 18 3 -5 16 -5 16 6 -1
13 -20 5 -38 -14 -31 -8 3 -17 1 -21 -5 -3 -7 3 -11 15 -11 14 0 19 -4 15 -12
-4 -7 -1 -6 7 2 7 8 25 23 40 32 25 16 27 16 34 0 4 -9 6 -23 5 -29 -1 -7 3
-13 9 -13 5 0 10 -7 10 -15 0 -23 47 -18 64 6 9 13 21 19 30 16 9 -4 16 -1 16
5 0 7 10 23 23 36 12 14 16 22 10 18 -15 -8 -16 9 -3 39 8 19 9 19 9 -3 1 -12
7 -21 14 -20 7 2 11 -5 9 -17 -4 -26 -70 -85 -95 -85 -15 0 -17 -3 -8 -13 6
-8 7 -17 3 -21 -4 -5 9 3 29 15 44 29 109 118 109 151 0 12 12 34 25 47 23 21
25 21 25 5 1 -34 60 -87 60 -54 0 13 27 13 35 0 3 -5 1 -18 -4 -29 -9 -16 -8
-18 9 -14 21 5 35 -6 63 -49 11 -19 26 -28 43 -28 18 0 24 -5 22 -17 -2 -14 3
-17 22 -15 14 2 44 6 68 9 25 3 42 1 42 -5 0 -6 9 -8 20 -5 15 4 18 11 13 34
-3 16 -3 29 1 29 12 0 46 -35 46 -47 0 -7 4 -13 9 -13 8 0 88 -77 125 -120 40
-47 132 -201 179 -300 81 -172 144 -347 198 -550 12 -47 27 -88 32 -91 5 -4 7
-11 4 -15 -2 -5 1 -38 9 -74 8 -36 16 -90 19 -120 4 -30 10 -71 16 -90 5 -19
9 -48 9 -63 0 -16 4 -26 10 -22 6 3 10 16 10 28 0 18 2 19 10 7 7 -11 10 -4
10 26 0 22 3 44 7 47 3 4 7 19 8 34 3 58 29 192 35 188 4 -3 7 46 6 108 -1
116 7 164 24 137 6 -10 9 -6 8 16 -1 16 4 45 10 64 6 19 13 58 16 86 3 29 8
63 12 78 3 14 3 34 -1 43 -10 23 -18 123 -10 123 3 0 10 -10 15 -22 6 -16 9
-18 9 -7 1 9 -6 30 -14 45 -8 16 -15 37 -15 46 0 9 -4 20 -10 23 -5 3 -10 11
-10 16 0 6 4 8 9 4 18 -11 24 36 6 49 -12 8 -17 25 -16 52 1 80 10 105 51 154
44 53 29 60 -23 11 -20 -18 -26 -21 -22 -8 4 9 11 17 16 17 19 0 8 31 -16 42
-26 12 -30 19 -17 32 10 11 10 60 0 67 -5 3 -10 19 -11 35 -2 34 -27 59 -40
41 -5 -7 -6 8 -3 33 3 25 3 39 0 33 -9 -22 -33 -15 -27 7 4 16 2 19 -11 14
-11 -4 -16 -1 -16 10 0 9 7 16 15 16 8 0 15 7 15 16 0 10 -5 12 -12 7 -22 -13
-38 -12 -38 4 0 9 6 13 15 9 8 -3 16 0 16 7 2 15 5 31 9 37 6 12 7 50 0 50
-10 0 0 52 12 67 6 7 14 11 18 8 5 -3 11 -1 15 5 3 6 -1 13 -10 17 -10 3 -21
0 -26 -8 -6 -9 -9 -10 -9 -2 0 6 5 15 10 18 6 4 8 15 5 26 -4 11 -2 19 4 19 6
0 11 7 11 16 0 8 -5 12 -11 8 -6 -3 -15 0 -20 7 -6 10 -9 8 -9 -9 0 -14 -4
-21 -11 -17 -6 4 -8 13 -5 20 3 8 -4 17 -15 20 -15 5 -18 12 -13 33 4 21 3 24
-5 11 -6 -9 -12 -42 -13 -73 -1 -32 -6 -60 -10 -62 -4 -3 -8 1 -8 8 -1 7 -9 3
-20 -11 -11 -13 -20 -18 -20 -12 0 7 -4 9 -10 6 -5 -3 -15 5 -21 19 -9 19 -8
35 2 68 15 46 14 128 -1 128 -5 0 -17 -16 -26 -35 -9 -20 -19 -34 -21 -31 -2
2 2 17 11 34 14 28 19 123 5 100 -11 -18 -20 27 -15 72 7 55 -17 49 -25 -6
l-5 -39 -7 35 c-3 19 -6 42 -6 50 0 8 -4 54 -10 102 -8 62 -8 95 0 115 16 41
24 153 11 153 -6 0 -17 6 -24 13 -11 12 -13 5 -13 -39 0 -69 -16 -73 -31 -9
l-12 50 -1 -42 -1 -43 -20 20 c-11 11 -24 20 -30 20 -5 0 -10 8 -10 18 0 10
-9 35 -20 57 -11 22 -20 49 -20 62 0 12 -4 25 -10 28 -6 3 -7 -1 -4 -10 3 -8
3 -27 -1 -42 -5 -21 -8 -24 -16 -12 -12 19 -11 66 1 74 6 3 10 12 10 18 0 8
-3 8 -9 -2 -12 -19 -41 25 -41 65 0 21 -5 31 -15 31 -8 0 -15 -4 -15 -9 0 -4
5 -8 10 -8 6 0 10 -4 10 -10 0 -5 -7 -10 -15 -10 -13 0 -12 -4 5 -22 18 -20
30 -98 14 -98 -3 0 -14 19 -25 43 -11 23 -25 50 -32 60 -10 14 -9 19 2 26 15
9 -11 43 -94 123 -34 32 -42 36 -51 23 -17 -22 -29 -19 -70 20 -35 34 -74 46
-74 24 0 -5 -4 -8 -10 -4 -16 10 0 34 18 28 14 -5 14 -3 -2 15 -22 25 -38 29
-30 7 4 -8 1 -15 -5 -15 -6 0 -11 5 -11 11 0 5 -4 7 -10 4 -5 -3 -16 7 -22 22
-15 33 -38 53 -54 46 -7 -2 -17 4 -23 15 -6 11 -23 23 -38 27 -16 3 -36 13
-45 22 -9 8 -22 12 -27 8 -6 -3 -11 2 -12 12 0 11 -3 13 -6 5 -3 -8 -12 -4
-26 14 -25 32 -81 57 -110 49 -15 -4 -18 -3 -9 3 27 18 -37 23 -98 7 -74 -19
-110 -35 -110 -48 0 -6 3 -7 7 -4 3 4 12 2 19 -4 9 -7 19 -6 37 5 13 9 26 13
30 10 3 -4 14 1 23 10 22 23 39 15 37 -18 -1 -14 2 -24 8 -21 5 4 9 13 9 21 0
16 9 18 30 4 12 -7 12 -12 1 -34 -8 -14 -17 -23 -21 -21 -5 3 -10 -2 -14 -10
-4 -11 -14 -13 -37 -8 -28 5 -31 4 -26 -11 4 -10 3 -15 -3 -11 -6 3 -10 13
-10 21 0 8 -5 14 -10 14 -6 0 -10 -16 -8 -35 2 -38 7 -42 26 -23 7 7 12 8 12
4 0 -5 7 -3 15 4 21 17 18 0 -4 -29 -14 -18 -24 -22 -42 -18 -12 3 -29 1 -36
-5 -9 -8 -13 -7 -13 2 0 9 -4 10 -13 2 -17 -14 -40 21 -32 48 8 24 -11 35 -20
12 -6 -13 -10 -8 -19 22 -11 37 -12 38 -28 22 -16 -16 -18 -15 -34 10 -12 18
-14 28 -6 33 6 3 8 11 4 17 -8 12 -43 28 -55 25 -5 -1 -6 3 -2 9 3 6 0 17 -9
25 -13 13 -15 13 -19 -3 -4 -16 -5 -16 -6 1 0 9 -9 17 -18 18 -10 0 -26 2 -35
4 -10 2 -20 -1 -24 -6 -8 -13 -55 1 -90 28 -32 24 -59 30 -68 14z m-322 -87
c-5 -24 -11 -30 -34 -32 -16 -1 -32 3 -36 9 -4 8 -3 9 4 5 6 -4 24 6 39 23 15
16 29 28 30 27 2 -2 0 -16 -3 -32z m536 -29 c0 -8 -9 -15 -20 -15 -20 0 -26
11 -13 23 12 13 33 7 33 -8z m-180 -15 c0 -5 -4 -10 -10 -10 -5 0 -10 5 -10
10 0 6 5 10 10 10 6 0 10 -4 10 -10z m80 -45 c4 -41 8 -49 23 -47 13 2 17 -4
17 -24 l0 -26 -25 23 c-13 13 -25 34 -25 47 0 31 -18 28 -31 -5 -7 -20 -12
-24 -18 -14 -10 16 -22 16 -31 1 -9 -15 -1 -50 11 -50 5 0 9 -6 9 -13 0 -8 -7
-14 -15 -14 -8 0 -15 7 -15 14 0 8 -4 12 -9 9 -4 -3 -16 3 -25 13 -17 18 -17
20 3 40 12 12 21 28 21 36 0 8 5 15 10 15 6 0 16 11 22 25 9 21 18 25 42 23
29 -3 31 -6 36 -53z m125 17 c-3 -3 -11 0 -18 7 -9 10 -8 11 6 5 10 -3 15 -9
12 -12z m70 8 c3 -5 1 -10 -4 -10 -6 0 -11 5 -11 10 0 6 2 10 4 10 3 0 8 -4
11 -10z m-898 -6 c-3 -3 -12 -4 -19 -1 -8 3 -5 6 6 6 11 1 17 -2 13 -5z m-52
-24 c-3 -5 -13 -10 -21 -10 -8 0 -12 5 -9 10 3 6 13 10 21 10 8 0 12 -4 9 -10z
m325 1 c0 -6 -4 -13 -10 -16 -5 -3 -10 1 -10 9 0 9 5 16 10 16 6 0 10 -4 10
-9z m-120 -9 c0 -5 -7 -9 -15 -9 -8 0 -15 4 -15 9 0 4 7 8 15 8 8 0 15 -4 15
-8z m206 -70 c-15 -15 -25 16 -14 41 l13 27 3 -31 c2 -17 1 -34 -2 -37z m-48
16 c-1 -26 -2 -28 -12 -11 -15 26 -15 52 0 46 7 -2 12 -18 12 -35z m602 32 c0
-5 -4 -10 -10 -10 -5 0 -10 5 -10 10 0 6 5 10 10 10 6 0 10 -4 10 -10z m-1144
-26 c-21 -20 -28 -17 -16 6 6 11 15 18 21 15 5 -4 3 -12 -5 -21z m634 1 c0 -8
-7 -15 -15 -15 -8 0 -15 7 -15 15 0 8 7 15 15 15 8 0 15 -7 15 -15z m-680 -31
c0 -8 -5 -12 -10 -9 -6 4 -8 11 -5 16 9 14 15 11 15 -7z m1455 6 c3 -5 1 -10
-4 -10 -6 0 -11 5 -11 10 0 6 2 10 4 10 3 0 8 -4 11 -10z m-620 -70 c3 -6 4
-19 0 -30 -6 -18 -7 -18 -36 -2 -17 9 -30 20 -30 25 1 4 1 16 1 27 0 19 2 20
29 5 17 -8 33 -19 36 -25z m512 14 c-3 -3 -12 -4 -19 -1 -8 3 -5 6 6 6 11 1
17 -2 13 -5z m-1713 -29 c3 -9 0 -15 -9 -15 -9 0 -12 6 -9 15 4 8 7 15 9 15 2
0 5 -7 9 -15z m1607 -12 c13 -15 12 -15 -8 -4 -24 12 -29 21 -14 21 5 0 15 -7
22 -17z m189 -52 c0 -5 10 -12 23 -16 19 -6 20 -8 4 -12 -18 -5 -47 12 -47 28
0 5 5 9 10 9 6 0 10 -4 10 -9z m681 -46 c5 4 9 -1 9 -9 0 -9 5 -16 10 -16 6 0
10 -14 10 -31 0 -17 -4 -28 -10 -24 -5 3 -10 15 -10 26 0 13 -7 19 -24 19 -19
0 -24 5 -24 28 0 33 22 51 26 22 2 -11 8 -18 13 -15z m-2411 -66 c0 -11 -4
-17 -10 -14 -5 3 -10 15 -10 26 0 11 5 17 10 14 6 -3 10 -15 10 -26z m513 -44
c24 -51 21 -56 -8 -13 -27 39 -30 48 -17 48 5 0 16 -16 25 -35z m27 15 c0 -5
-5 -10 -11 -10 -5 0 -7 5 -4 10 3 6 8 10 11 10 2 0 4 -4 4 -10z m-637 -13 c4
3 7 -1 7 -9 0 -11 -6 -14 -20 -11 -11 3 -20 12 -20 20 0 12 3 13 13 4 8 -6 17
-8 20 -4z m2639 -72 c6 -29 -7 -34 -15 -6 -4 17 0 31 9 31 1 0 4 -11 6 -25z
m-2914 -87 c2 -9 -6 -18 -18 -21 -13 -3 -20 -13 -20 -29 0 -22 -4 -24 -35 -20
-21 3 -35 0 -35 -7 0 -6 -8 -11 -18 -11 -9 0 -35 -9 -56 -21 -21 -11 -41 -17
-44 -14 -4 3 -1 10 6 14 9 5 11 17 6 36 -5 18 -3 26 3 22 6 -4 13 -1 16 6 3 7
41 22 86 32 45 10 81 22 81 27 0 15 25 3 28 -14z m2953 13 c7 11 9 10 9 -3 0
-10 -7 -18 -15 -18 -8 0 -15 8 -14 18 0 12 2 13 6 3 5 -11 7 -11 14 0z m-2343
-21 c4 -12 2 -13 -9 -3 -8 6 -25 13 -39 16 -17 4 -15 5 9 4 21 -1 36 -8 39
-17z m2373 -32 c-9 -20 -10 -18 -10 17 0 31 2 36 9 23 6 -10 7 -25 1 -40z m78
-36 c1 -7 -3 -10 -9 -7 -5 3 -10 18 -9 33 0 24 1 25 9 7 5 -11 9 -26 9 -33z
m-3055 12 c23 -9 20 -24 -4 -24 -11 0 -20 7 -20 15 0 17 2 18 24 9z m2749 -14
c-3 -12 -8 -19 -11 -16 -5 6 5 36 12 36 2 0 2 -9 -1 -20z m-2028 -30 c3 -5 -3
-10 -14 -10 -12 0 -21 5 -21 10 0 6 6 10 14 10 8 0 18 -4 21 -10z m-69 -19 c0
-11 -4 -17 -8 -15 -4 3 -8 12 -8 20 0 8 4 14 8 14 4 0 8 -9 8 -19z m2331 -13
c-3 -8 -6 -5 -6 6 -1 11 2 17 5 13 3 -3 4 -12 1 -19z m90 -25 c-3 -10 -5 -4
-5 12 0 17 2 24 5 18 2 -7 2 -21 0 -30z m114 4 c-10 -9 -11 -8 -5 6 3 10 9 15
12 12 3 -3 0 -11 -7 -18z m-98 -68 c-5 -5 -7 7 -4 29 5 34 6 35 9 8 2 -16 0
-32 -5 -37z m-3388 1 c3 -6 -1 -7 -9 -4 -18 7 -21 14 -7 14 6 0 13 -4 16 -10z
m3436 -47 c-8 -15 -10 -15 -11 -2 0 17 10 32 18 25 2 -3 -1 -13 -7 -23z
m-3461 -8 c0 -9 -6 -12 -15 -9 -8 4 -15 10 -15 15 0 5 7 9 15 9 8 0 15 -7 15
-15z m-70 -5 c0 -5 -2 -10 -4 -10 -3 0 -8 5 -11 10 -3 6 -1 10 4 10 6 0 11 -4
11 -10z m3678 -412 c0 -39 -1 -40 -9 -15 -6 24 -3 57 6 57 1 0 3 -19 3 -42z
m-3973 -88 c-14 -28 -24 -54 -22 -58 3 -4 1 -16 -4 -27 l-9 -20 1 20 c2 37 -2
40 -16 15 l-14 -25 -1 23 c0 29 26 81 54 104 35 29 38 21 11 -32z m3962 8 c-3
-8 -6 -5 -6 6 -1 11 2 17 5 13 3 -3 4 -12 1 -19z m-4369 -10 c17 -17 15 -26
-7 -38 -18 -9 -20 -7 -19 20 1 32 7 37 26 18z m422 -49 c0 -6 -4 -7 -10 -4 -5
3 -10 11 -10 16 0 6 5 7 10 4 6 -3 10 -11 10 -16z m4086 -85 c-4 -9 -9 -15
-11 -12 -3 3 -3 13 1 22 4 9 9 15 11 12 3 -3 3 -13 -1 -22z m-4233 -44 c-3
-11 -7 -20 -9 -20 -2 0 -4 9 -4 20 0 11 4 20 9 20 5 0 7 -9 4 -20z m3133 -173
c-2 -7 -5 -4 -5 6 -1 10 -5 15 -11 12 -11 -7 -14 8 -3 19 9 9 26 -22 19 -37z
m-69 -24 c-3 -10 -5 -2 -5 17 0 19 2 27 5 18 2 -10 2 -26 0 -35z m-313 -8 c3
-9 0 -15 -9 -15 -8 0 -15 7 -15 15 0 8 4 15 9 15 5 0 11 -7 15 -15z m-1608
-38 c8 3 14 -1 14 -9 0 -17 -45 -58 -64 -58 -7 0 -19 -7 -26 -15 -14 -16 -46
-20 -54 -7 -3 5 3 18 12 28 10 10 21 27 25 36 6 18 70 40 75 27 2 -4 10 -5 18
-2z m-1766 -132 c0 -8 -4 -15 -10 -15 -5 0 -10 7 -10 15 0 8 5 15 10 15 6 0
10 -7 10 -15z m4920 -129 c0 -11 -19 -15 -25 -6 -3 5 1 10 9 10 9 0 16 -2 16
-4z m20 -32 c0 -8 -4 -12 -10 -9 -5 3 -10 10 -10 16 0 5 5 9 10 9 6 0 10 -7
10 -16z m-4986 -26 c-10 -33 -36 -79 -30 -53 3 11 8 32 12 48 3 15 10 27 16
27 5 0 6 -10 2 -22z m5031 12 c3 -5 1 -10 -4 -10 -6 0 -11 5 -11 10 0 6 2 10
4 10 3 0 8 -4 11 -10z m-4989 -66 c-4 -9 -9 -15 -11 -12 -3 3 -3 13 1 22 4 9
9 15 11 12 3 -3 3 -13 -1 -22z m-69 -126 c-3 -8 -6 -5 -6 6 -1 11 2 17 5 13 3
-3 4 -12 1 -19z m2226 -915 c-7 -2 -19 -2 -25 0 -7 3 -2 5 12 5 14 0 19 -2 13
-5z m-1018 -73 c3 -5 1 -10 -4 -10 -6 0 -11 5 -11 10 0 6 2 10 4 10 3 0 8 -4
11 -10z m1085 -26 c-56 -17 -58 -17 -34 1 10 8 33 14 49 14 27 0 25 -2 -15
-15z m-470 -244 c-8 -5 -19 -10 -25 -10 -5 0 -3 5 5 10 8 5 20 10 25 10 6 0 3
-5 -5 -10z m0 -40 c-19 -13 -30 -13 -30 0 0 6 10 10 23 10 18 0 19 -2 7 -10z
m865 -39 c26 -5 -36 -10 -175 -14 -231 -7 -297 -16 -625 -86 -220 -47 -195
-43 -195 -32 0 4 28 14 63 20 34 7 132 27 217 46 85 19 184 39 220 46 128 23
415 35 495 20z m1070 -78 c6 -21 3 -23 -32 -22 -21 0 -32 3 -25 6 6 2 12 12
12 20 0 10 6 13 16 9 12 -5 15 -2 10 11 -5 12 -4 14 2 8 5 -5 13 -20 17 -32z
m1334 6 c155 -28 243 -71 253 -124 5 -22 0 -19 -37 21 -33 35 -47 44 -66 40
-13 -3 -50 -10 -81 -16 -32 -6 -58 -16 -58 -21 0 -5 -7 -9 -15 -9 -8 0 -24 -9
-36 -21 -23 -23 -71 -31 -105 -19 -20 8 -21 14 -17 70 4 42 2 65 -6 69 -6 4
-37 9 -67 10 -44 2 -59 -2 -72 -17 -14 -16 -19 -17 -29 -6 -10 10 -8 14 10 18
34 8 -201 -4 -256 -13 -26 -4 -50 -4 -52 0 -5 8 63 17 230 30 115 9 321 3 404
-12z m-2389 -19 c-19 -5 -87 -13 -151 -19 -196 -18 -244 -13 -113 13 74 15
327 20 264 6z m977 -6 c-3 -3 -12 -4 -19 -1 -8 3 -5 6 6 6 11 1 17 -2 13 -5z
m1073 -34 c0 -5 -2 -10 -4 -10 -3 0 -8 5 -11 10 -3 6 -1 10 4 10 6 0 11 -4 11
-10z m-4099 -47 c-9 -16 -10 -14 -11 12 0 21 3 26 11 18 8 -8 8 -16 0 -30z
m2695 9 c15 -10 34 -47 34 -66 0 -40 -68 2 -75 47 -4 21 -2 27 12 27 10 0 23
-4 29 -8z m1631 -155 c25 -3 56 -17 80 -35 34 -27 49 -31 146 -40 60 -6 111
-13 114 -16 15 -14 -86 -404 -132 -510 -18 -42 -14 -57 9 -34 21 22 66 118 66
143 0 11 4 25 9 31 9 10 32 104 57 239 23 121 35 130 17 13 -31 -201 -106
-434 -160 -499 -92 -109 -388 -171 -685 -143 -42 4 -65 11 -61 17 4 6 -5 8
-26 4 -22 -5 -30 -3 -25 4 4 7 0 9 -13 5 -11 -4 -31 -2 -44 3 -16 6 -18 10 -7
10 10 1 15 8 13 19 -2 9 -4 20 -4 25 -1 10 -31 9 -31 -2 0 -5 8 -11 18 -13 14
-3 13 -5 -5 -10 -29 -8 -92 46 -120 103 -46 93 -75 187 -34 109 11 -19 22 -34
26 -32 3 2 15 -7 25 -20 15 -18 19 -20 20 -7 0 21 24 31 38 17 8 -8 6 -17 -4
-33 -14 -22 -14 -24 5 -30 12 -3 21 -12 21 -18 0 -18 43 -43 48 -28 2 6 28 11
63 11 47 0 59 3 59 16 0 14 2 14 15 0 8 -8 15 -19 15 -25 0 -6 18 -8 45 -5 31
4 45 2 45 -6 0 -8 9 -10 26 -6 17 5 36 0 57 -13 l32 -20 -2 70 c-2 67 9 90 22
48 13 -39 30 -13 31 47 3 88 5 112 11 92 6 -25 44 -23 50 2 3 11 9 20 14 20 5
0 9 7 9 15 0 8 4 15 8 15 5 0 9 46 9 103 0 114 9 168 26 164 7 -1 12 5 12 13
0 8 -6 14 -12 13 -21 -5 -15 24 11 52 13 14 24 31 23 38 0 6 1 36 1 66 2 46 4
52 15 39 6 -9 31 -18 54 -21z m-3676 -27 c16 0 29 -4 29 -10 0 -12 -60 -13
-76 -2 -6 4 -17 18 -24 31 l-13 24 28 -21 c15 -12 41 -22 56 -22z m3209 16 c0
-3 -4 -8 -10 -11 -5 -3 -10 -1 -10 4 0 6 5 11 10 11 6 0 10 -2 10 -4z m386
-37 c3 -6 -1 -18 -10 -27 -15 -15 -16 -14 -14 11 2 28 12 35 24 16z m-2299
-31 c-3 -7 -5 -2 -5 12 0 14 2 19 5 13 2 -7 2 -19 0 -25z m1845 7 c-2 -14 -6
-25 -8 -25 -2 0 -4 11 -4 25 0 14 4 25 9 25 4 0 6 -11 3 -25z m918 -5 c0 -16
-4 -30 -9 -30 -5 0 -8 8 -6 18 2 9 4 23 4 30 2 26 11 11 11 -18z m-717 -79
c-9 -15 -92 -34 -94 -22 -6 61 -6 68 10 68 9 0 20 -5 24 -11 5 -6 5 0 2 12 -6
21 -4 23 14 17 14 -4 21 -2 21 7 0 7 8 -2 17 -21 12 -24 14 -38 6 -50z m-1136
27 c-3 -7 -5 -2 -5 12 0 14 2 19 5 13 2 -7 2 -19 0 -25z m920 -10 c-3 -7 -5
-2 -5 12 0 14 2 19 5 13 2 -7 2 -19 0 -25z m263 -88 c-1 -3 -10 -21 -20 -40
l-20 -35 3 42 c2 32 6 41 20 40 9 -1 17 -4 17 -7z m-1203 -32 c-3 -8 -6 -5 -6
6 -1 11 2 17 5 13 3 -3 4 -12 1 -19z m-10 -40 c-3 -8 -6 -5 -6 6 -1 11 2 17 5
13 3 -3 4 -12 1 -19z m1253 -31 c0 -23 6 -35 22 -42 27 -12 31 -40 12 -76 -10
-20 -19 -27 -32 -23 -14 5 -14 4 -2 -5 32 -22 -1 -21 -34 1 -20 14 -33 28 -29
31 3 4 2 7 -3 7 -6 0 -19 7 -30 15 -17 14 -16 14 13 1 17 -9 35 -20 38 -26 3
-5 12 -10 18 -10 7 0 -6 16 -28 35 -73 62 -75 65 -62 85 6 10 15 16 19 14 5
-3 5 -10 2 -16 -4 -6 0 -14 7 -19 22 -14 32 -10 26 10 -4 16 2 21 24 26 16 4
27 11 23 16 -3 5 0 9 5 9 6 0 11 -15 11 -33z m-4096 -13 c9 -24 7 -28 -9 -14
-17 14 -20 30 -6 30 5 0 12 -7 15 -16z m1379 -75 c37 -22 75 -38 82 -35 8 3
17 1 19 -3 3 -5 27 -11 54 -15 26 -3 57 -12 67 -20 24 -16 67 -27 60 -16 -12
19 20 21 98 6 45 -8 89 -15 97 -15 18 0 50 -6 109 -21 24 -6 52 -8 62 -5 10 3
28 1 39 -5 23 -12 44 -15 180 -25 52 -4 98 -12 102 -19 5 -8 10 -8 19 1 7 7
24 10 38 7 35 -7 85 12 75 28 -6 9 -3 9 9 0 20 -17 40 -6 34 19 -5 17 1 19 47
19 56 0 76 12 76 46 0 25 38 77 51 69 5 -4 9 1 9 9 0 9 5 16 10 16 15 0 13 -7
-36 -140 -62 -170 -104 -247 -162 -302 -41 -39 -63 -51 -124 -67 -245 -67
-582 -70 -841 -10 -113 27 -193 83 -232 164 -29 58 -55 200 -55 298 0 52 2 57
22 57 12 0 53 -18 91 -41z m2782 -30 c-10 -15 -25 -10 -19 6 4 8 10 12 15 9 5
-3 7 -10 4 -15z m20 -19 c3 -5 1 -10 -4 -10 -6 0 -11 5 -11 10 0 6 2 10 4 10
3 0 8 -4 11 -10z m-4063 -24 c10 -7 14 -16 10 -21 -4 -4 2 -5 14 -1 14 4 26 1
34 -9 7 -9 9 -15 4 -14 -46 8 -52 -15 -7 -32 13 -5 22 -13 19 -18 -3 -5 1 -12
10 -15 12 -5 15 -2 10 9 -4 11 -2 14 7 8 6 -4 17 -8 22 -8 10 0 10 -5 6 -42
-2 -15 -4 -14 -11 4 -9 23 -41 25 -48 3 -3 -7 0 -10 6 -6 5 3 12 0 15 -8 12
-32 -35 -1 -53 35 -11 21 -24 41 -30 44 -9 5 -40 69 -40 81 0 8 15 3 32 -10z
m2608 -96 c-6 -11 -13 -20 -16 -20 -2 0 0 9 6 20 6 11 13 20 16 20 2 0 0 -9
-6 -20z m1240 -50 c0 -5 -7 -10 -16 -10 -8 0 -12 5 -9 10 3 6 10 10 16 10 5 0
9 -4 9 -10z m50 -20 c0 -5 -7 -10 -16 -10 -8 0 -12 5 -9 10 3 6 10 10 16 10 5
0 9 -4 9 -10z m-73 -16 c-3 -3 -12 -4 -19 -1 -8 3 -5 6 6 6 11 1 17 -2 13 -5z
m-3707 -75 c0 -5 -4 -9 -8 -9 -5 0 -9 7 -9 15 0 8 4 12 9 9 4 -3 8 -9 8 -15z
m83 -151 c-2 -5 1 -8 8 -8 14 0 5 -58 -12 -75 -7 -7 -9 2 -6 30 5 49 0 65 -22
65 -12 0 -13 -2 -3 -9 11 -6 12 -24 7 -76 -5 -45 -4 -66 3 -61 6 3 12 -9 14
-30 l4 -37 -22 26 c-28 33 -47 119 -48 217 l-1 75 28 -1 c21 -1 27 4 28 20 1
12 7 -13 14 -54 7 -41 11 -78 8 -82z m256 75 c-1 -10 -1 -25 0 -33 1 -13 2
-13 11 0 7 12 9 10 7 -7 -1 -17 -5 -20 -18 -12 -10 5 -19 14 -22 21 -5 18 3
48 15 48 5 0 8 -8 7 -17z m2996 -33 c3 -5 1 -10 -4 -10 -6 0 -11 5 -11 10 0 6
2 10 4 10 3 0 8 -4 11 -10z m-2989 -91 c-4 -25 -3 -38 3 -35 5 4 11 1 14 -6 2
-7 2 -1 0 15 -6 35 4 35 18 0 13 -36 4 -69 -22 -76 -15 -4 -19 -2 -15 9 3 8 1
14 -3 14 -13 0 -19 93 -8 108 16 21 20 13 13 -29z m1948 -63 c-3 -11 -14 -33
-25 -48 -10 -15 -19 -34 -19 -43 0 -13 -3 -13 -20 -3 -26 16 -19 51 16 86 13
14 22 28 19 32 -3 5 4 6 15 3 15 -4 19 -11 14 -27z m-2184 -86 c0 -5 -5 -10
-11 -10 -5 0 -7 5 -4 10 3 6 8 10 11 10 2 0 4 -4 4 -10z m1950 -20 c0 -5 -9
-10 -21 -10 -11 0 -17 5 -14 10 3 6 13 10 21 10 8 0 14 -4 14 -10z m160 -27
c0 -9 -6 -12 -19 -8 -20 6 -38 -20 -21 -30 10 -6 7 -101 -4 -127 -5 -10 -6
-25 -2 -33 3 -9 -8 -29 -29 -50 -19 -19 -35 -39 -35 -45 0 -5 -4 -10 -10 -10
-5 0 -10 -7 -10 -15 0 -8 4 -15 10 -15 5 0 8 -6 6 -12 -3 -7 -7 -27 -10 -45
-6 -39 17 -52 41 -23 10 11 27 20 39 20 12 0 37 8 54 18 25 13 34 14 37 5 3
-7 11 -13 19 -13 19 0 18 -34 -1 -50 -8 -7 -15 -23 -15 -37 0 -13 -7 -31 -15
-40 -8 -8 -12 -19 -9 -25 4 -7 2 -8 -5 -4 -6 4 -18 0 -27 -8 -22 -22 -34 -20
-31 6 3 31 -27 35 -41 6 -6 -13 -11 -17 -11 -10 -1 6 -10 12 -21 12 -11 0 -20
7 -20 15 0 8 -4 15 -10 15 -5 0 -10 6 -10 14 0 20 -62 27 -76 8 -9 -13 -12
-11 -17 9 -5 17 -1 29 14 41 13 11 18 24 15 36 -3 10 3 35 14 57 11 22 20 32
20 22 0 -9 4 -17 8 -17 4 0 6 25 4 56 -2 35 1 61 9 71 7 8 14 24 16 34 2 11
14 36 26 57 13 20 28 48 32 62 4 14 13 28 19 32 7 5 6 8 -4 8 -10 0 -5 9 14
25 22 19 32 22 43 14 7 -6 13 -18 13 -26z m-175 -4 c10 -16 -1 -22 -26 -14
-17 6 -19 9 -8 16 19 12 26 11 34 -2z m-1495 -238 c15 -28 12 -77 -5 -94 -11
-12 -12 -17 -2 -20 7 -3 5 -6 -5 -6 -12 -1 -15 -6 -11 -18 4 -10 2 -14 -5 -9
-6 4 -10 -1 -10 -11 3 -36 -23 -94 -40 -91 -9 2 -18 12 -20 22 -2 11 0 16 7
12 6 -4 15 11 21 36 7 23 18 47 26 53 10 7 16 32 17 78 2 69 9 81 27 48z m114
-7 c3 -8 2 -12 -4 -9 -6 3 -10 10 -10 16 0 14 7 11 14 -7z m-160 -36 c-2 -17
-10 -39 -18 -47 -8 -9 -16 -32 -18 -51 -2 -21 -8 -34 -15 -33 -8 2 -10 -4 -6
-14 4 -10 2 -14 -4 -10 -21 13 -24 -26 -4 -44 13 -12 17 -26 14 -40 l-6 -23
-9 23 c-9 26 -28 19 -28 -10 0 -10 -4 -19 -10 -19 -15 0 -12 37 3 52 17 15 10
48 -9 48 -8 0 -14 -8 -15 -17 0 -12 -2 -14 -6 -5 -7 19 17 62 35 62 12 0 12 3
2 15 -6 8 -10 20 -7 27 3 8 6 6 6 -5 1 -26 19 -11 31 26 9 30 10 29 5 -13 -4
-44 -4 -45 8 -13 7 17 15 35 20 39 4 4 7 13 7 20 0 15 18 64 23 64 3 0 3 -14
1 -32z m3106 6 c0 -8 -4 -12 -10 -9 -5 3 -10 10 -10 16 0 5 5 9 10 9 6 0 10
-7 10 -16z m-2063 -70 c2 -10 0 -13 -3 -6 -3 6 -12 12 -20 12 -9 0 -12 5 -9
11 10 15 30 5 32 -17z m-47 -29 c0 -8 -4 -15 -10 -15 -5 0 -10 7 -10 15 0 8 5
15 10 15 6 0 10 -7 10 -15z m-855 -5 c3 -5 1 -10 -4 -10 -6 0 -11 5 -11 10 0
6 2 10 4 10 3 0 8 -4 11 -10z m85 -10 c0 -5 -2 -10 -4 -10 -3 0 -8 5 -11 10
-3 6 -1 10 4 10 6 0 11 -4 11 -10z m1387 -12 c-3 -8 -6 -5 -6 6 -1 11 2 17 5
13 3 -3 4 -12 1 -19z m-1490 -44 c2 -20 0 -25 -7 -14 -5 8 -6 18 -4 22 3 4 0
8 -5 8 -6 0 -11 5 -11 11 0 25 25 0 27 -27z m1703 22 c0 -2 -6 -9 -14 -15 -11
-9 -16 -9 -22 0 -4 7 -3 9 4 5 6 -3 13 -2 17 4 6 10 15 14 15 6z m1225 -8 c5
4 5 2 2 -5 -4 -6 -16 -9 -27 -6 -11 3 -17 9 -14 15 3 5 11 5 18 -1 7 -6 17 -7
21 -3z m-2179 -27 c-4 -6 -12 -11 -18 -11 -7 0 -7 4 1 13 6 8 9 16 7 19 -1 3
1 2 7 -2 5 -5 6 -13 3 -19z m188 -9 c3 -5 -8 -16 -25 -26 l-29 -17 12 25 c11
25 32 34 42 18z m2596 -23 c0 -5 -4 -9 -10 -9 -5 0 -10 7 -10 16 0 8 5 12 10
9 6 -3 10 -10 10 -16z m-3541 -21 c0 -13 -3 -17 -6 -10 -2 6 -9 10 -13 7 -5
-3 -12 0 -16 6 -4 7 -3 9 4 5 6 -3 13 -2 17 4 10 16 15 12 14 -12z m-291 -23
c-3 -3 -9 2 -12 12 -6 14 -5 15 5 6 7 -7 10 -15 7 -18z m152 13 c0 -7 -5 -20
-10 -28 -8 -12 -10 -9 -10 13 0 15 5 27 10 27 6 0 10 -6 10 -12z m230 -17 c0
-9 -4 -22 -9 -29 -6 -10 -10 -8 -14 10 -10 37 -8 48 8 42 8 -4 15 -14 15 -23z
m3054 14 c-4 -8 -8 -15 -10 -15 -2 0 -4 7 -4 15 0 8 4 15 10 15 5 0 7 -7 4
-15z m-3434 -35 c0 -5 -2 -10 -4 -10 -3 0 -8 5 -11 10 -3 6 -1 10 4 10 6 0 11
-4 11 -10z m1885 -10 c-3 -5 -11 -10 -16 -10 -6 0 -7 5 -4 10 3 6 11 10 16 10
6 0 7 -4 4 -10z m-1256 -54 c-9 -8 -10 -7 -5 7 3 10 7 24 7 30 1 7 3 4 6 -7 3
-10 -1 -23 -8 -30z m101 28 c0 -8 -5 -12 -10 -9 -6 4 -8 11 -5 16 9 14 15 11
15 -7z m-683 -16 c-3 -8 -6 -5 -6 6 -1 11 2 17 5 13 3 -3 4 -12 1 -19z m168
12 c-3 -5 -10 -10 -16 -10 -5 0 -9 5 -9 10 0 6 7 10 16 10 8 0 12 -4 9 -10z
m397 -67 c-7 -21 -29 -15 -36 10 -9 36 -7 45 12 49 17 4 33 -34 24 -59z m-221
28 c5 9 7 -11 5 -49 -3 -69 -16 -98 -16 -36 0 21 -4 45 -9 53 -5 8 -6 21 -3
30 4 11 7 12 10 2 4 -11 6 -11 13 0z m1545 -10 c-9 -8 -18 -12 -22 -9 -9 10 3
25 21 25 14 0 14 -2 1 -16z m-1376 -7 c0 -8 -4 -12 -10 -9 -5 3 -10 10 -10 16
0 5 5 9 10 9 6 0 10 -7 10 -16z m3157 -16 c-3 -8 -6 -5 -6 6 -1 11 2 17 5 13
3 -3 4 -12 1 -19z m-3689 -23 c-3 -3 -9 2 -12 12 -6 14 -5 15 5 6 7 -7 10 -15
7 -18z m439 -7 c-3 -7 -5 -2 -5 12 0 14 2 19 5 13 2 -7 2 -19 0 -25z m173 16
c0 -8 -4 -12 -10 -9 -5 3 -10 10 -10 16 0 5 5 9 10 9 6 0 10 -7 10 -16z m3027
-6 c-3 -8 -6 -5 -6 6 -1 11 2 17 5 13 3 -3 4 -12 1 -19z m103 6 c0 -8 -5 -12
-10 -9 -6 4 -8 11 -5 16 9 14 15 11 15 -7z m-70 -14 c-7 -4 -10 -15 -7 -24 3
-8 2 -18 -2 -20 -4 -3 -7 7 -6 22 3 41 4 44 16 36 8 -5 7 -9 -1 -14z m-1680
-10 c0 -5 -2 -10 -4 -10 -3 0 -8 5 -11 10 -3 6 -1 10 4 10 6 0 11 -4 11 -10z
m-1574 -101 c13 -59 16 -149 5 -149 -6 0 -11 9 -11 20 0 11 -5 20 -12 20 -6 0
-8 3 -5 6 3 4 2 15 -3 25 -7 11 -6 28 0 46 9 26 9 27 -5 9 -8 -11 -15 -15 -15
-9 0 7 7 18 15 27 9 8 12 22 8 33 -4 13 -3 15 6 7 6 -6 14 -21 17 -35z m3178
35 c12 -4 16 -19 15 -53 0 -25 -3 -39 -6 -31 -3 8 -14 23 -24 34 -11 11 -17
22 -14 25 3 2 12 -4 21 -15 14 -17 15 -18 10 -1 -3 10 -6 23 -6 29 0 6 -7 8
-15 4 -8 -3 -15 -1 -15 4 0 11 11 13 34 4z m-1154 -44 c0 -11 -4 -20 -10 -20
-5 0 -10 9 -10 20 0 11 5 20 10 20 6 0 10 -9 10 -20z m-296 -69 c-7 -7 -12 3
-18 34 l-6 30 14 -30 c8 -16 12 -32 10 -34z m-2043 22 c-12 -20 -14 -14 -5 12
4 9 9 14 11 11 3 -2 0 -13 -6 -23z m281 -72 c22 -23 45 -38 52 -34 6 3 1 -4
-11 -16 -29 -28 -41 -27 -35 4 3 19 0 25 -12 25 -18 0 -47 57 -45 87 1 13 3
12 6 -4 2 -12 22 -40 45 -62z m1708 59 c9 -16 8 -18 -5 -14 -12 5 -14 2 -8
-12 6 -17 5 -18 -11 -4 -11 8 -14 16 -7 18 6 2 11 10 11 18 0 20 7 17 20 -6z
m-2063 -22 c-3 -8 -6 -5 -6 6 -1 11 2 17 5 13 3 -3 4 -12 1 -19z m-24 -1 c3
-8 1 -20 -4 -28 -6 -10 -9 -7 -9 14 0 29 5 35 13 14z m372 3 c3 -5 1 -10 -4
-10 -6 0 -11 5 -11 10 0 6 2 10 4 10 3 0 8 -4 11 -10z m3185 -1 c5 9 10 10 14
2 4 -6 2 -11 -3 -11 -6 0 -11 -12 -11 -27 l0 -28 -26 27 c-28 27 -25 60 3 37
11 -10 16 -10 23 0z m-3530 -53 c0 -23 -16 -27 -17 -5 -1 10 2 19 8 19 5 0 9
-6 9 -14z m3540 -70 c0 -6 -7 -2 -15 8 -8 11 -15 25 -15 30 0 6 7 2 15 -8 8
-11 15 -25 15 -30z m-2920 14 c-6 -11 -13 -20 -16 -20 -2 0 0 9 6 20 6 11 13
20 16 20 2 0 0 -9 -6 -20z m2960 5 c0 -8 -4 -15 -10 -15 -5 0 -7 7 -4 15 4 8
8 15 10 15 2 0 4 -7 4 -15z m-3603 -17 c-3 -8 -6 -5 -6 6 -1 11 2 17 5 13 3
-3 4 -12 1 -19z m3536 -54 c-3 -8 0 -14 5 -14 17 0 9 -43 -12 -64 -18 -18 -19
-18 -32 -1 -12 16 -12 22 1 41 8 13 15 35 15 50 0 22 2 24 14 14 8 -6 12 -18
9 -26z m-3130 -1 c-3 -7 -6 -13 -8 -13 -2 0 -5 6 -8 13 -3 8 1 14 8 14 7 0 11
-6 8 -14z m2766 -110 c-17 -19 -26 -16 -31 12 -6 29 12 39 29 17 9 -11 10 -19
2 -29z m325 11 c10 -27 7 -69 -7 -89 -15 -20 -23 -12 -31 28 -2 15 -8 31 -11
37 -11 17 3 40 24 40 10 0 22 -7 25 -16z m-994 -59 c-7 -9 -15 -13 -18 -10 -3
2 1 11 8 20 7 9 15 13 18 10 3 -2 -1 -11 -8 -20z m630 18 c0 -12 -64 -63 -87
-69 -12 -3 -20 -11 -19 -17 2 -7 1 -9 -1 -4 -3 4 -13 7 -24 7 -10 0 -19 6 -19
13 0 14 16 23 78 49 17 7 32 16 32 20 0 5 9 8 20 8 11 0 20 -3 20 -7z m-3125
-33 c3 -6 -4 -10 -17 -10 -18 0 -20 2 -8 10 19 12 18 12 25 0z m3229 -25 c-4
-8 -10 -12 -15 -9 -11 6 -2 24 11 24 5 0 7 -7 4 -15z m226 -49 c0 -2 -7 -7
-16 -10 -8 -3 -12 -2 -9 4 6 10 25 14 25 6z m-3100 -951 c-7 -9 -15 -13 -17
-11 -7 7 7 26 19 26 6 0 6 -6 -2 -15z m4 -65 c-6 -5 -24 21 -24 34 0 6 6 1 14
-10 8 -10 12 -21 10 -24z m106 -110 c0 -5 -2 -10 -4 -10 -3 0 -8 5 -11 10 -3
6 -1 10 4 10 6 0 11 -4 11 -10z m2443 -105 c-7 -21 -12 -19 -10 4 0 11 5 18 9
15 4 -3 5 -11 1 -19z m-68 -15 c3 -5 -1 -10 -10 -10 -9 0 -13 5 -10 10 3 6 8
10 10 10 2 0 7 -4 10 -10z m-2299 -27 c-10 -10 -19 5 -10 18 6 11 8 11 12 0 2
-7 1 -15 -2 -18z m2285 -20 c1 -21 2 -23 6 -8 8 33 22 40 27 14 2 -13 9 -49
16 -79 25 -118 29 -162 19 -182 -5 -10 -14 -16 -19 -13 -10 6 -20 -7 -25 -36
-3 -17 -2 -19 10 -9 8 7 20 10 27 7 9 -4 7 -6 -3 -6 -9 -1 -19 -8 -23 -16 -4
-11 -14 -14 -33 -10 -26 6 -27 5 -10 -9 11 -8 26 -12 35 -9 11 3 13 2 6 -4 -7
-4 -13 -17 -15 -28 -5 -21 -29 -28 -41 -10 -5 6 -8 5 -8 -3 0 -20 -42 -72 -53
-65 -5 3 -6 -4 -2 -18 3 -13 3 -19 -2 -14 -15 18 -33 15 -33 -6 0 -16 -4 -19
-21 -14 -14 5 -19 3 -15 -3 3 -6 -1 -17 -9 -25 -8 -9 -15 -20 -15 -26 0 -5 -5
-13 -12 -17 -8 -5 -9 -2 -4 11 5 14 4 16 -7 6 -11 -9 -17 -8 -27 3 -16 21 -3
37 27 34 15 -2 28 3 31 11 3 11 -2 12 -23 7 -20 -5 -26 -3 -22 6 2 7 10 12 16
10 6 -1 11 2 11 8 0 12 -23 13 -34 3 -4 -5 -15 -8 -24 -9 -10 -1 -29 -2 -44
-3 -16 0 -28 -6 -28 -11 0 -6 11 -8 25 -4 32 8 32 -2 -1 -33 -26 -24 -26 -24
-5 -30 11 -3 21 -9 21 -14 0 -5 5 -9 11 -9 5 0 7 5 4 10 -10 16 11 12 25 -5
13 -15 7 -18 -42 -18 -14 0 -15 -3 -7 -19 6 -11 8 -22 5 -26 -3 -3 -6 1 -7 9
-1 8 -4 3 -8 -10 -4 -14 -13 -27 -20 -29 -10 -3 -12 0 -8 12 4 9 10 23 14 32
5 14 0 16 -33 12 -54 -6 -67 -11 -80 -27 -11 -14 -85 -43 -93 -36 -2 3 1 5 7
5 7 0 12 7 12 16 0 13 -7 15 -37 9 -21 -4 -44 -11 -50 -17 -7 -6 -38 -10 -68
-9 -33 0 -53 -4 -50 -9 4 -6 15 -10 26 -10 19 0 25 -11 12 -23 -3 -4 -12 -2
-20 5 -11 8 -12 7 -7 -6 5 -12 0 -16 -22 -16 -16 0 -35 -4 -43 -9 -10 -6 -24
-2 -45 14 -17 13 -57 28 -89 35 -46 9 -57 15 -53 27 4 9 1 22 -6 31 -11 13
-10 14 10 3 12 -7 20 -17 16 -23 -4 -7 -2 -8 5 -4 6 4 17 3 24 -2 19 -15 65
-23 72 -12 3 5 1 10 -4 10 -6 0 -11 5 -11 10 0 6 14 10 31 10 17 0 28 4 24 10
-3 6 -20 10 -36 10 -17 0 -44 7 -61 16 -43 22 -178 28 -178 8 0 -9 11 -14 33
-14 23 -1 28 -3 17 -10 -16 -9 -132 18 -138 32 -2 4 -11 8 -20 9 -14 0 -13 2
3 9 l20 9 -20 1 c-11 2 -25 2 -31 1 -7 -1 -14 6 -18 14 -3 9 -10 14 -15 11 -5
-3 -9 17 -8 44 0 28 4 50 9 50 4 0 8 -7 8 -15 0 -15 34 -38 61 -40 29 -3 52
22 47 50 -7 33 10 43 28 16 18 -25 34 -27 34 -6 0 8 4 15 9 15 5 0 8 -15 7
-32 -2 -31 -4 -33 -35 -31 -18 0 -29 -2 -25 -7 19 -18 86 -50 104 -50 11 0 20
-4 20 -10 0 -5 9 -10 20 -10 25 0 25 8 3 27 -17 13 -16 14 7 8 14 -4 32 -7 40
-7 8 0 21 -6 28 -11 11 -8 17 -6 24 8 11 18 11 18 26 -1 14 -18 14 -18 9 6 -4
14 -1 32 4 40 9 13 10 13 6 -2 -4 -10 1 -18 14 -21 16 -4 19 -2 15 10 -4 11
-2 13 9 9 10 -3 15 1 16 12 0 11 2 12 6 4 3 -7 -1 -19 -7 -28 -7 -8 -10 -17
-7 -21 8 -8 38 17 32 27 -5 8 52 -10 73 -24 9 -5 23 3 43 23 16 18 34 29 39
26 6 -4 10 -1 10 5 0 6 8 9 18 6 30 -9 46 8 32 35 -10 22 -10 23 4 5 12 -14
23 -17 50 -12 45 9 49 -11 9 -36 -22 -14 -24 -18 -10 -18 10 0 16 -4 13 -9 -7
-11 18 -21 52 -20 22 0 23 2 9 8 -17 6 -17 8 2 25 19 18 21 18 21 2 0 -16 2
-16 15 -2 8 8 15 19 15 25 0 18 -38 12 -49 -6 -5 -10 -13 -14 -17 -10 -4 4 2
16 14 27 27 26 28 34 3 20 -26 -13 -38 -13 -24 1 7 7 9 26 6 46 -5 27 -2 37
15 49 11 8 22 23 24 34 2 14 7 17 16 11 15 -9 18 -44 7 -78 -5 -15 -3 -23 4
-23 6 0 11 8 12 18 0 14 2 14 9 -3 5 -11 9 -15 10 -10 0 6 5 2 11 -8 6 -9 7
-26 4 -37 -4 -11 -2 -20 4 -20 6 0 11 13 11 29 0 16 6 31 14 34 18 7 9 47 -10
47 -8 0 -11 6 -8 15 4 8 1 22 -6 30 -11 13 -10 14 4 9 15 -6 17 -2 11 32 -5
28 -4 35 4 24 8 -12 11 -11 17 5 4 11 14 28 22 37 8 10 12 24 9 33 -4 8 -3 23
0 32 6 15 7 15 14 -3 7 -18 8 -17 8 3 1 12 6 25 13 29 7 4 8 3 4 -4 -4 -7 -4
-12 1 -12 4 0 17 18 27 40 12 25 26 40 38 40 10 0 18 5 18 10 0 6 10 0 22 -12
l21 -21 10 24 c5 13 9 36 9 52 -1 17 5 27 14 27 8 0 14 -11 15 -27z m-51 -43
c0 -5 -4 -10 -10 -10 -5 0 -10 5 -10 10 0 6 5 10 10 10 6 0 10 -4 10 -10z
m-144 -69 c-13 -20 -26 -11 -26 16 0 25 1 26 16 11 9 -9 13 -21 10 -27z m-66
-42 c0 -5 -4 -9 -10 -9 -5 0 -10 7 -10 16 0 8 5 12 10 9 6 -3 10 -10 10 -16z
m-1702 -67 c2 -7 -6 -12 -23 -12 -14 0 -24 -4 -20 -9 3 -5 1 -12 -4 -15 -5 -3
-11 9 -13 27 -3 32 -3 33 26 28 16 -4 31 -12 34 -19z m1609 2 c-3 -3 -12 -4
-19 -1 -8 3 -5 6 6 6 11 1 17 -2 13 -5z m68 -3 c3 -5 2 -12 -3 -15 -5 -3 -9 1
-9 9 0 17 3 19 12 6z m-134 -51 c6 0 7 5 4 10 -3 6 -1 10 4 10 13 0 14 -17 2
-24 -14 -9 -42 5 -34 17 5 8 8 7 11 -1 2 -7 8 -12 13 -12z m39 -47 c0 -5 -7
-17 -15 -27 -8 -11 -15 -32 -15 -48 0 -23 -4 -28 -23 -28 -13 0 -32 9 -42 20
-16 18 -16 20 -1 20 9 0 24 9 33 20 13 14 19 16 25 7 5 -7 8 -2 8 16 0 17 5
27 15 27 8 0 15 -3 15 -7z m-1029 -66 c-16 -16 -25 -1 -10 16 8 8 16 11 18 5
2 -5 -2 -15 -8 -21z m-844 -11 c-4 -9 0 -12 11 -10 35 9 45 -10 26 -49 -10
-21 -21 -37 -26 -37 -11 0 -10 7 8 41 8 17 13 33 10 37 -4 3 -14 -13 -23 -37
-10 -25 -20 -38 -26 -32 -5 5 -4 17 3 31 6 12 9 24 7 27 -3 3 -15 -18 -28 -46
-12 -28 -25 -51 -30 -51 -13 0 -11 16 4 32 6 7 14 22 15 33 6 31 31 75 43 75
6 0 9 -6 6 -14z m961 2 c6 -1 12 -7 12 -15 0 -7 5 -13 11 -13 5 0 8 -4 5 -9
-3 -4 -24 -4 -46 2 -29 8 -40 16 -40 30 0 15 5 18 23 12 12 -3 28 -7 35 -7z
m-878 -37 c0 -12 -41 -63 -47 -57 -6 6 29 66 39 66 4 0 8 -4 8 -9z m1690 -1
c0 -5 -2 -10 -4 -10 -3 0 -8 5 -11 10 -3 6 -1 10 4 10 6 0 11 -4 11 -10z
m-1686 -59 c-9 -22 -20 -41 -25 -41 -13 0 -11 6 12 51 26 52 35 45 13 -10z
m673 43 c-3 -3 -12 -4 -19 -1 -8 3 -5 6 6 6 11 1 17 -2 13 -5z m-652 -64 c-14
-29 -29 -50 -32 -47 -3 3 -1 12 3 19 5 7 9 19 10 26 3 19 35 65 40 59 3 -3 -7
-28 -21 -57z m2115 51 c0 -5 2 -16 5 -23 4 -9 -2 -14 -15 -15 -20 -2 -29 25
-13 40 9 10 23 9 23 -2z m-1292 -16 c50 -3 59 -9 44 -28 -7 -8 -9 -17 -5 -20
14 -14 -14 -6 -61 18 -27 13 -52 22 -57 19 -5 -3 -21 2 -36 11 -28 16 -27 16
22 9 28 -4 69 -8 93 -9z m-1018 -36 c0 -6 -4 -7 -10 -4 -5 3 -10 11 -10 16 0
6 5 7 10 4 6 -3 10 -11 10 -16z m1711 6 c8 19 9 19 6 1 -3 -29 -27 -33 -26 -4
1 20 2 21 7 3 l5 -20 8 20z m-771 -9 c0 -2 -7 -6 -15 -10 -8 -3 -15 -1 -15 4
0 6 7 10 15 10 8 0 15 -2 15 -4z m20 -26 c0 -5 -4 -10 -10 -10 -5 0 -10 5 -10
10 0 6 5 10 10 10 6 0 10 -4 10 -10z m45 -10 c3 -5 -1 -10 -9 -10 -9 0 -16 5
-16 10 0 6 4 10 9 10 6 0 13 -4 16 -10z m75 0 c-19 -13 -30 -13 -30 0 0 6 10
10 23 10 18 0 19 -2 7 -10z m-791 -40 c-6 -16 -15 -27 -21 -24 -6 4 -6 9 -1
13 5 3 12 14 16 24 11 30 16 18 6 -13z m22 -27 c-12 -20 -14 -14 -5 12 4 9 9
14 11 11 3 -2 0 -13 -6 -23z m80 -16 c-10 -9 -11 -8 -5 6 3 10 9 15 12 12 3
-3 0 -11 -7 -18z m-76 -36 c-3 -12 -10 -21 -15 -21 -5 0 -4 11 2 25 13 29 23
26 13 -4z m2111 3 c-4 -9 -9 -15 -11 -12 -3 3 -3 13 1 22 4 9 9 15 11 12 3 -3
3 -13 -1 -22z m-2079 1 c0 -8 -4 -15 -9 -15 -10 0 -11 14 -1 23 9 10 10 9 10
-8z m807 -11 c22 -22 20 -25 -9 -12 -14 6 -25 15 -25 20 0 13 17 9 34 -8z
m839 9 c-7 -2 -19 -2 -25 0 -7 3 -2 5 12 5 14 0 19 -2 13 -5z m-900 -28 c-3
-9 -8 -14 -10 -11 -3 3 -2 9 2 15 9 16 15 13 8 -4z m-761 -2 c-6 -2 -10 -9 -6
-14 3 -5 1 -9 -5 -9 -6 0 -8 -8 -4 -17 5 -14 3 -15 -6 -7 -15 14 2 55 22 53 9
0 9 -2 -1 -6z m803 -3 c3 -6 -1 -7 -9 -4 -18 7 -21 14 -7 14 6 0 13 -4 16 -10z
m800 0 c3 -5 1 -10 -4 -10 -6 0 -11 5 -11 10 0 6 2 10 4 10 3 0 8 -4 11 -10z
m-1548 -25 c0 -8 -4 -12 -9 -9 -5 3 -6 10 -3 15 9 13 12 11 12 -6z m948 6 c3
-5 2 -12 -3 -15 -5 -3 -9 1 -9 9 0 17 3 19 12 6z m-992 -46 c-8 -25 -19 -42
-24 -39 -13 7 -11 20 4 36 7 7 16 21 20 31 14 38 15 14 0 -28z m2022 26 c-3
-6 -11 -11 -16 -11 -5 0 -4 6 3 14 14 16 24 13 13 -3z m-1951 -15 c-3 -9 -10
-16 -15 -16 -5 0 -4 9 3 20 14 22 21 20 12 -4z m1371 14 c3 -5 -1 -10 -10 -10
-9 0 -13 5 -10 10 3 6 8 10 10 10 2 0 7 -4 10 -10z m-330 -10 c8 -13 -15 -13
-35 0 -12 8 -11 10 7 10 12 0 25 -4 28 -10z m1265 -30 c0 -5 8 -16 17 -26 12
-12 19 -38 22 -88 3 -64 2 -69 -13 -57 -9 7 -16 19 -16 26 0 16 -35 47 -43 38
-4 -3 -7 -1 -7 5 0 18 20 25 36 11 8 -6 17 -10 19 -7 8 7 -6 38 -16 38 -5 0
-9 11 -9 25 0 14 -4 25 -10 25 -5 0 -10 7 -10 15 0 9 6 12 15 9 8 -4 15 -10
15 -14z m-2290 -5 c0 -8 -4 -15 -10 -15 -5 0 -7 7 -4 15 4 8 8 15 10 15 2 0 4
-7 4 -15z m1967 9 c-3 -3 -12 -4 -19 -1 -8 3 -5 6 6 6 11 1 17 -2 13 -5z
m-2008 -38 c-11 -23 -29 -36 -29 -20 0 8 34 53 38 49 1 -1 -3 -14 -9 -29z
m1965 -1 c-4 -8 -11 -15 -16 -15 -6 0 -5 6 2 15 7 8 14 15 16 15 2 0 1 -7 -2
-15z m-1791 -50 c-3 -9 -8 -14 -10 -11 -3 3 -2 9 2 15 9 16 15 13 8 -4z m2054
-27 c-3 -8 -6 -5 -6 6 -1 11 2 17 5 13 3 -3 4 -12 1 -19z m-2091 -62 c-7 -21
-16 -34 -20 -28 -7 11 22 78 29 70 2 -2 -2 -21 -9 -42z m2191 8 c10 -27 -7
-28 -32 -2 -13 14 -21 28 -18 32 8 8 43 -13 50 -30z m-2122 7 c-3 -10 -11 -38
-18 -61 -7 -24 -18 -45 -24 -47 -13 -5 -8 26 13 74 8 17 14 36 14 42 0 6 5 11
11 11 6 0 8 -8 4 -19z m27 -18 c-5 -10 -13 -35 -16 -57 -5 -26 -11 -35 -17
-29 -7 7 -3 27 12 62 12 28 24 50 26 47 3 -2 0 -13 -5 -23z m1816 -5 c-6 -18
-28 -21 -28 -4 0 9 7 16 16 16 9 0 14 -5 12 -12z m39 -10 c-3 -8 -6 -5 -6 6
-1 11 2 17 5 13 3 -3 4 -12 1 -19z m213 -18 c0 7 3 10 7 6 5 -4 1 -13 -7 -19
-8 -7 -15 -18 -15 -24 0 -14 -1 -15 -31 -7 -16 4 -20 11 -16 26 3 13 11 18 23
15 13 -3 16 0 12 12 -3 12 -1 11 11 -3 11 -13 16 -15 16 -6z m-2024 -42 c-8
-30 -12 -36 -14 -21 -3 19 13 63 22 63 2 0 -2 -19 -8 -42z m2180 13 c1 -6 0
-7 -3 -1 -2 5 -13 10 -24 10 -10 0 -19 4 -19 10 0 13 43 -4 46 -19z m131 13
c-3 -3 -12 -4 -19 -1 -8 3 -5 6 6 6 11 1 17 -2 13 -5z m-2287 -44 c-6 -12 -14
-19 -17 -17 -2 3 1 15 7 27 6 12 14 19 17 17 2 -3 -1 -15 -7 -27z"/>
<path d="M5790 4565 c0 -8 4 -15 10 -15 5 0 7 7 4 15 -4 8 -8 15 -10 15 -2 0
-4 -7 -4 -15z"/>
<path d="M5100 4204 c0 -8 5 -12 10 -9 6 3 10 10 10 16 0 5 -4 9 -10 9 -5 0
-10 -7 -10 -16z"/>
<path d="M5050 4201 c0 -6 4 -13 10 -16 6 -3 7 1 4 9 -7 18 -14 21 -14 7z"/>
<path d="M5597 4139 c4 -13 8 -18 11 -10 2 7 -1 18 -6 23 -8 8 -9 4 -5 -13z"/>
<path d="M5109 4131 c8 -5 10 -14 6 -22 -6 -11 -5 -11 5 -2 14 12 6 33 -13 33
-8 0 -7 -3 2 -9z"/>
<path d="M3790 4256 c0 -2 6 -9 14 -15 10 -9 15 -8 20 4 4 10 -1 15 -14 15
-11 0 -20 -2 -20 -4z"/>
<path d="M1750 4016 c0 -9 30 -14 35 -6 4 6 -3 10 -14 10 -12 0 -21 -2 -21 -4z"/>
<path d="M3971 3234 c0 -11 3 -14 6 -6 3 7 2 16 -1 19 -3 4 -6 -2 -5 -13z"/>
<path d="M3810 3220 c0 -5 5 -10 11 -10 5 0 7 5 4 10 -3 6 -8 10 -11 10 -2 0
-4 -4 -4 -10z"/>
<path d="M4901 1003 c-1 -26 -17 -39 -25 -21 -3 7 -3 3 0 -9 5 -20 1 -23 -23
-23 l-28 0 25 -13 c23 -13 26 -11 43 21 10 18 16 41 14 50 -3 12 -5 11 -6 -5z"/>
<path d="M4800 894 c0 -8 -4 -13 -9 -10 -5 3 -14 -1 -21 -9 -7 -8 -21 -15 -31
-15 -11 0 -19 -4 -19 -10 0 -5 5 -10 10 -10 6 0 10 -14 10 -30 0 -18 6 -33 15
-36 8 -4 15 -13 15 -22 0 -8 -3 -13 -6 -9 -4 3 -13 -1 -21 -9 -14 -13 -14 -17
3 -32 23 -21 60 -38 96 -46 22 -5 26 -3 22 9 -4 8 -16 15 -28 16 -21 0 -21 1
-1 10 16 7 13 8 -12 4 -41 -6 -44 15 -7 44 14 11 24 25 22 31 -1 5 -15 -1 -31
-15 l-27 -26 0 43 c1 45 29 114 30 73 0 -18 2 -17 14 5 11 21 11 27 0 36 -8 6
-11 14 -7 17 3 4 1 7 -5 7 -7 0 -12 -7 -12 -16z"/>
<path d="M4856 867 c3 -10 9 -15 12 -12 3 3 0 11 -7 18 -10 9 -11 8 -5 -6z"/>
<path d="M4900 870 c0 -5 5 -10 10 -10 6 0 10 5 10 10 0 6 -4 10 -10 10 -5 0
-10 -4 -10 -10z"/>
<path d="M4925 830 c3 -5 8 -10 11 -10 2 0 4 5 4 10 0 6 -5 10 -11 10 -5 0 -7
-4 -4 -10z"/>
<path d="M4679 763 c-13 -17 -13 -17 6 -3 11 8 22 16 24 17 2 2 0 3 -6 3 -6 0
-17 -8 -24 -17z"/>
<path d="M4572 690 c0 -14 2 -19 5 -12 2 6 2 18 0 25 -3 6 -5 1 -5 -13z"/>
<path d="M4710 696 c-6 -9 -10 -21 -7 -28 4 -9 6 -7 6 4 1 9 7 18 14 21 6 2 9
7 6 11 -3 4 -12 0 -19 -8z"/>
<path d="M4720 660 c0 -6 5 -10 10 -10 6 0 10 -7 10 -16 0 -8 4 -13 10 -9 5 3
7 12 4 20 -7 16 -34 28 -34 15z"/>
<path d="M4773 620 c0 -25 2 -35 4 -22 2 12 2 32 0 45 -2 12 -4 2 -4 -23z"/>
<path d="M4330 556 c-27 -27 -2 -34 30 -8 l22 18 -21 0 c-12 0 -26 -5 -31 -10z"/>
<path d="M4375 526 c-25 -24 -26 -27 -7 -17 13 7 29 10 37 8 14 -6 35 11 35
28 0 20 -35 10 -65 -19z"/>
<path d="M4563 509 c14 -8 22 -8 30 0 8 8 3 11 -18 11 -26 -1 -28 -2 -12 -11z"/>
<path d="M3820 500 c0 -5 5 -10 10 -10 6 0 10 5 10 10 0 6 -4 10 -10 10 -5 0
-10 -4 -10 -10z"/>
<path d="M4488 493 c6 -2 18 -2 25 0 6 3 1 5 -13 5 -14 0 -19 -2 -12 -5z"/>
<path d="M4091 474 c0 -11 3 -14 6 -6 3 7 2 16 -1 19 -3 4 -6 -2 -5 -13z"/>
<path d="M4415 480 c-3 -5 1 -10 10 -10 9 0 13 5 10 10 -3 6 -8 10 -10 10 -2
0 -7 -4 -10 -10z"/>
<path d="M4168 463 c7 -3 16 -2 19 1 4 3 -2 6 -13 5 -11 0 -14 -3 -6 -6z"/>
<path d="M4349 449 c-15 -6 -29 -18 -32 -29 -4 -14 -1 -17 12 -12 27 10 61 34
61 43 0 11 -7 10 -41 -2z"/>
<path d="M2450 8673 c-18 -7 -40 -34 -39 -48 0 -5 3 -4 6 3 2 6 9 10 14 6 5
-3 9 0 9 7 0 6 8 18 18 25 18 14 16 16 -8 7z"/>
<path d="M5464 8283 c4 -7 3 -13 -2 -13 -17 0 -20 -52 -6 -84 13 -30 13 -30 7
17 -7 54 -1 59 22 20 l16 -28 -7 35 c-3 19 -13 42 -21 50 -9 8 -13 9 -9 3z"/>
<path d="M2000 8254 c0 -3 7 -12 15 -20 16 -17 18 -14 9 10 -6 15 -24 23 -24
10z"/>
<path d="M5687 7471 c-2 -10 -1 -24 3 -31 5 -7 9 -2 12 14 6 30 -7 45 -15 17z"/>
<path d="M5851 7341 c-9 -16 -8 -18 9 -14 21 6 26 18 11 28 -6 3 -15 -3 -20
-14z"/>
<path d="M4177 7094 c-8 -8 1 -24 14 -24 5 0 9 7 9 15 0 15 -12 20 -23 9z"/>
<path d="M4831 7004 c0 -11 3 -14 6 -6 3 7 2 16 -1 19 -3 4 -6 -2 -5 -13z"/>
<path d="M2255 6580 c-3 -5 -1 -10 4 -10 6 0 11 5 11 10 0 6 -2 10 -4 10 -3 0
-8 -4 -11 -10z"/>
<path d="M5965 6525 c7 -33 12 -41 21 -33 3 4 -2 19 -11 35 l-16 28 6 -30z"/>
<path d="M5970 6405 c0 -8 2 -15 4 -15 2 0 6 7 10 15 3 8 1 15 -4 15 -6 0 -10
-7 -10 -15z"/>
<path d="M1921 5914 c0 -11 3 -14 6 -6 3 7 2 16 -1 19 -3 4 -6 -2 -5 -13z"/>
<path d="M2131 5414 c0 -11 3 -14 6 -6 3 7 2 16 -1 19 -3 4 -6 -2 -5 -13z"/>
<path d="M2624 5346 c-10 -8 -17 -16 -14 -19 3 -2 14 4 24 14 23 22 18 25 -10
5z"/>
<path d="M4876 5351 c-4 -7 -5 -15 -2 -18 9 -9 19 4 14 18 -4 11 -6 11 -12 0z"/>
<path d="M2573 5289 c1 -14 4 -16 17 -6 8 6 16 12 18 13 1 1 -6 4 -17 7 -14 3
-19 0 -18 -14z"/>
<path d="M2220 4926 c0 -19 26 -22 36 -3 4 6 4 9 -1 5 -4 -4 -14 -3 -22 3 -10
9 -13 8 -13 -5z"/>
<path d="M2015 4490 c-3 -5 -2 -10 4 -10 5 0 13 5 16 10 3 6 2 10 -4 10 -5 0
-13 -4 -16 -10z"/>
<path d="M2493 3785 c-6 -14 -7 -23 -2 -19 13 8 31 44 22 44 -4 0 -13 -11 -20
-25z"/>
<path d="M5197 3749 c7 -7 15 -10 18 -7 3 3 -2 9 -12 12 -14 6 -15 5 -6 -5z"/>
<path d="M3688 3713 c7 -3 16 -2 19 1 4 3 -2 6 -13 5 -11 0 -14 -3 -6 -6z"/>
<path d="M5219 3697 c-1 -4 -2 -10 -3 -14 -1 -5 -4 -12 -7 -18 -8 -12 5 -50
19 -59 6 -3 12 1 16 9 3 8 1 15 -4 15 -5 0 -8 14 -8 30 1 26 -10 55 -13 37z"/>
<path d="M5258 3693 c7 -3 16 -2 19 1 4 3 -2 6 -13 5 -11 0 -14 -3 -6 -6z"/>
<path d="M5561 3664 c0 -11 3 -14 6 -6 3 7 2 16 -1 19 -3 4 -6 -2 -5 -13z"/>
<path d="M1448 3616 c-10 -10 -18 -24 -18 -32 0 -10 -5 -12 -12 -7 -23 14 -36
11 -41 -8 -3 -10 0 -17 7 -16 6 1 10 -6 10 -16 -1 -10 1 -16 4 -13 3 3 13 -11
22 -31 l17 -38 35 38 c50 54 56 107 12 107 -7 0 -14 8 -16 17 -3 15 -4 15 -20
-1z m12 -20 c0 -3 -4 -8 -10 -11 -5 -3 -10 -1 -10 4 0 6 5 11 10 11 6 0 10 -2
10 -4z"/>
<path d="M2223 3607 c-22 -46 -33 -78 -33 -94 0 -27 12 -7 32 53 19 57 20 82
1 41z"/>
<path d="M4985 3620 c3 -5 8 -10 11 -10 2 0 4 5 4 10 0 6 -5 10 -11 10 -5 0
-7 -4 -4 -10z"/>
<path d="M5470 3475 c0 -8 5 -15 10 -15 6 0 10 7 10 15 0 8 -4 15 -10 15 -5 0
-10 -7 -10 -15z"/>
<path d="M5475 3430 c3 -5 8 -10 11 -10 2 0 4 5 4 10 0 6 -5 10 -11 10 -5 0
-7 -4 -4 -10z"/>
<path d="M3200 3415 c0 -10 7 -15 18 -13 21 4 19 22 -2 26 -10 2 -16 -3 -16
-13z"/>
<path d="M5208 3413 c7 -3 16 -2 19 1 4 3 -2 6 -13 5 -11 0 -14 -3 -6 -6z"/>
<path d="M5770 3380 c0 -5 5 -10 10 -10 6 0 10 5 10 10 0 6 -4 10 -10 10 -5 0
-10 -4 -10 -10z"/>
<path d="M5825 3360 c-3 -5 1 -10 10 -10 9 0 13 5 10 10 -3 6 -8 10 -10 10 -2
0 -7 -4 -10 -10z"/>
<path d="M5240 3340 c-18 -12 -2 -12 25 0 13 6 15 9 5 9 -8 0 -22 -4 -30 -9z"/>
<path d="M3030 3330 c0 -5 5 -10 10 -10 6 0 10 5 10 10 0 6 -4 10 -10 10 -5 0
-10 -4 -10 -10z"/>
<path d="M5725 3310 c0 -23 5 -30 19 -30 15 0 17 -6 14 -39 -2 -22 0 -37 4
-35 14 9 9 62 -9 99 -20 43 -28 44 -28 5z"/>
<path d="M5255 3320 c-3 -5 1 -10 9 -10 9 0 16 5 16 10 0 6 -4 10 -9 10 -6 0
-13 -4 -16 -10z"/>
<path d="M2860 3301 c0 -6 4 -13 10 -16 6 -3 7 1 4 9 -7 18 -14 21 -14 7z"/>
<path d="M5880 3291 c0 -5 7 -15 17 -22 15 -13 15 -12 4 9 -12 23 -21 28 -21
13z"/>
<path d="M2745 3260 c3 -5 8 -10 11 -10 2 0 4 5 4 10 0 6 -5 10 -11 10 -5 0
-7 -4 -4 -10z"/>
<path d="M1713 3195 c0 -8 4 -12 9 -9 4 3 8 9 8 15 0 5 -4 9 -8 9 -5 0 -9 -7
-9 -15z"/>
<path d="M5790 3195 c0 -5 5 -17 10 -25 5 -8 10 -10 10 -5 0 6 -5 17 -10 25
-5 8 -10 11 -10 5z"/>
<path d="M2058 2283 c7 -3 16 -2 19 1 4 3 -2 6 -13 5 -11 0 -14 -3 -6 -6z"/>
<path d="M2056 2181 c-4 -5 3 -7 14 -4 23 6 26 13 6 13 -8 0 -17 -4 -20 -9z"/>
<path d="M2016 2095 c-3 -8 -1 -15 4 -15 6 0 10 5 10 11 0 5 11 -3 24 -18 20
-23 27 -26 38 -15 11 11 10 12 -4 7 -11 -5 -22 2 -33 19 -20 30 -30 33 -39 11z"/>
<path d="M2030 2060 c0 -5 5 -10 11 -10 5 0 7 5 4 10 -3 6 -8 10 -11 10 -2 0
-4 -4 -4 -10z"/>
<path d="M2105 2024 c36 -28 61 -36 30 -10 -16 14 -34 25 -40 25 -5 0 -1 -7
10 -15z"/>
<path d="M2007 1957 c-3 -9 1 -18 9 -21 16 -6 18 2 5 22 -7 11 -9 11 -14 -1z"/>
<path d="M1975 1858 c-5 -23 -9 -27 -16 -17 -5 8 -9 12 -9 9 -14 -94 -1 -121
20 -44 8 27 21 49 31 53 18 6 18 7 0 18 -17 11 -20 9 -26 -19z"/>
<path d="M2180 1836 c0 -2 7 -9 15 -16 9 -7 15 -8 15 -2 0 5 -7 12 -15 16 -8
3 -15 4 -15 2z"/>
<path d="M1951 1714 c0 -11 3 -14 6 -6 3 7 2 16 -1 19 -3 4 -6 -2 -5 -13z"/>
<path d="M1816 1624 c-9 -24 -7 -31 4 -14 8 13 10 12 10 -3 0 -10 4 -16 9 -13
10 7 3 46 -9 46 -4 0 -11 -7 -14 -16z"/>
<path d="M1800 1570 c0 -13 11 -13 30 0 12 8 11 10 -7 10 -13 0 -23 -4 -23
-10z"/>
<path d="M1754 1493 c4 -8 1 -13 -9 -13 -9 0 -13 -5 -9 -11 5 -8 1 -8 -14 0
-18 10 -20 7 -20 -29 0 -22 3 -42 9 -45 5 -4 9 1 9 10 0 9 10 26 23 38 24 24
28 40 13 54 -5 5 -6 3 -2 -4z"/>
<path d="M1925 1069 c-4 -6 -5 -12 -2 -15 2 -3 7 2 10 11 7 17 1 20 -8 4z"/>
<path d="M2650 923 c0 -5 12 -20 26 -34 24 -21 26 -22 16 -3 -13 25 -42 50
-42 37z"/>
<path d="M2000 890 c-6 -11 -8 -20 -6 -20 3 0 10 9 16 20 6 11 8 20 6 20 -3 0
-10 -9 -16 -20z"/>
<path d="M2035 899 c-4 -6 -5 -12 -2 -15 2 -3 7 2 10 11 7 17 1 20 -8 4z"/>
<path d="M2206 873 c-6 -14 -5 -15 5 -6 7 7 10 15 7 18 -3 3 -9 -2 -12 -12z"/>
<path d="M2130 840 c-6 -11 -8 -20 -6 -20 3 0 10 9 16 20 6 11 8 20 6 20 -3 0
-10 -9 -16 -20z"/>
<path d="M2280 830 c-6 -11 -8 -20 -6 -20 3 0 10 9 16 20 6 11 8 20 6 20 -3 0
-10 -9 -16 -20z"/>
<path d="M2150 819 c-7 -11 -10 -23 -7 -25 2 -2 9 7 15 21 14 30 7 33 -8 4z"/>
<path d="M2215 829 c-4 -6 -5 -12 -2 -15 2 -3 7 2 10 11 7 17 1 20 -8 4z"/>
<path d="M2295 799 c-9 -17 -15 -33 -13 -35 3 -2 12 12 21 31 21 43 13 47 -8
4z"/>
<path d="M2314 769 c-14 -28 -24 -53 -22 -55 2 -2 16 21 31 51 15 30 25 55 22
55 -3 0 -16 -23 -31 -51z"/>
<path d="M2070 790 c-6 -11 -8 -20 -6 -20 3 0 10 9 16 20 6 11 8 20 6 20 -3 0
-10 -9 -16 -20z"/>
<path d="M2396 803 c-10 -10 -47 -95 -43 -99 2 -2 15 21 29 51 26 55 28 61 14
48z"/>
<path d="M2147 749 c-16 -27 -26 -49 -24 -49 7 0 59 91 55 95 -2 2 -16 -18
-31 -46z"/>
<path d="M2196 783 c-6 -14 -5 -15 5 -6 7 7 10 15 7 18 -3 3 -9 -2 -12 -12z"/>
<path d="M2256 785 c-9 -26 -7 -32 5 -12 6 10 9 21 6 23 -2 3 -7 -2 -11 -11z"/>
<path d="M2346 772 c-29 -56 -67 -147 -57 -137 11 12 82 165 76 165 -3 0 -11
-13 -19 -28z"/>
<path d="M2120 760 c-6 -11 -8 -20 -6 -20 3 0 10 9 16 20 6 11 8 20 6 20 -3 0
-10 -9 -16 -20z"/>
<path d="M2207 745 c-24 -50 -20 -58 4 -12 11 22 19 41 17 43 -3 2 -12 -12
-21 -31z"/>
<path d="M2440 760 c-6 -11 -8 -20 -6 -20 3 0 10 9 16 20 6 11 8 20 6 20 -3 0
-10 -9 -16 -20z"/>
<path d="M2405 759 c-4 -6 -5 -12 -2 -15 2 -3 7 2 10 11 7 17 1 20 -8 4z"/>
<path d="M2460 729 c-12 -23 -20 -43 -18 -45 3 -2 14 17 26 41 27 56 20 60 -8
4z"/>
<path d="M2509 693 c-12 -27 -32 -69 -45 -95 -14 -27 -22 -48 -19 -48 5 0 70
126 85 166 16 42 1 26 -21 -23z"/>
<path d="M2256 713 c-6 -14 -5 -15 5 -6 7 7 10 15 7 18 -3 3 -9 -2 -12 -12z"/>
<path d="M2367 675 c-15 -30 -25 -55 -22 -55 7 0 57 101 53 106 -2 2 -16 -21
-31 -51z"/>
<path d="M2416 715 c-9 -26 -7 -32 5 -12 6 10 9 21 6 23 -2 3 -7 -2 -11 -11z"/>
<path d="M2476 696 c-23 -49 -19 -59 5 -13 11 22 18 41 16 43 -2 3 -12 -11
-21 -30z"/>
<path d="M2335 679 c-4 -6 -5 -12 -2 -15 2 -3 7 2 10 11 7 17 1 20 -8 4z"/>
<path d="M2230 660 c-6 -11 -8 -20 -6 -20 3 0 10 9 16 20 6 11 8 20 6 20 -3 0
-10 -9 -16 -20z"/>
<path d="M2391 659 c-7 -12 -10 -23 -8 -26 3 -3 11 5 17 17 15 28 8 35 -9 9z"/>
<path d="M2417 641 c-9 -16 -17 -33 -17 -38 0 -4 9 7 21 26 11 18 18 35 17 37
-2 2 -12 -10 -21 -25z"/>
<path d="M2305 620 c-9 -16 -13 -30 -11 -30 3 0 12 14 21 30 9 17 13 30 11 30
-3 0 -12 -13 -21 -30z"/>
<path d="M2425 590 c-14 -27 -23 -50 -20 -50 2 0 16 23 30 50 14 28 23 50 20
50 -2 0 -16 -22 -30 -50z"/>
<path d="M2203 618 c-15 -20 -25 -38 -20 -38 3 0 12 11 21 25 17 26 16 35 -1
13z"/>
<path d="M2365 609 c-4 -6 -5 -12 -2 -15 2 -3 7 2 10 11 7 17 1 20 -8 4z"/>
<path d="M2326 593 c-6 -14 -5 -15 5 -6 7 7 10 15 7 18 -3 3 -9 -2 -12 -12z"/>
<path d="M2345 569 c-4 -6 -5 -12 -2 -15 2 -3 7 2 10 11 7 17 1 20 -8 4z"/>
<path d="M2370 550 c-6 -11 -8 -20 -6 -20 3 0 10 9 16 20 6 11 8 20 6 20 -3 0
-10 -9 -16 -20z"/>
<path d="M5520 548 c0 -7 5 -20 10 -28 8 -12 10 -11 10 7 0 12 -4 25 -10 28
-5 3 -10 0 -10 -7z"/>
<path d="M2380 510 c-6 -11 -8 -20 -6 -20 3 0 10 9 16 20 6 11 8 20 6 20 -3 0
-10 -9 -16 -20z"/>
<path d="M2410 500 c-6 -11 -8 -20 -6 -20 3 0 10 9 16 20 6 11 8 20 6 20 -3 0
-10 -9 -16 -20z"/>
<path d="M2345 454 c-9 -15 -12 -23 -6 -20 11 7 35 46 28 46 -3 0 -12 -12 -22
-26z"/>
<path d="M2576 420 c-15 -27 -25 -50 -22 -50 6 0 57 92 53 97 -2 2 -16 -19
-31 -47z"/>
<path d="M2500 410 c-6 -11 -8 -20 -6 -20 3 0 10 9 16 20 6 11 8 20 6 20 -3 0
-10 -9 -16 -20z"/>
<path d="M2630 390 c-6 -11 -8 -20 -6 -20 3 0 10 9 16 20 6 11 8 20 6 20 -3 0
-10 -9 -16 -20z"/>
<path d="M2600 340 c-6 -11 -8 -20 -6 -20 3 0 10 9 16 20 6 11 8 20 6 20 -3 0
-10 -9 -16 -20z"/>
<path d="M2750 291 c-11 -23 -19 -41 -16 -41 7 0 47 72 42 77 -2 3 -14 -13
-26 -36z"/>
<path d="M2720 300 c-6 -11 -8 -20 -6 -20 3 0 10 9 16 20 6 11 8 20 6 20 -3 0
-10 -9 -16 -20z"/>
<path d="M2585 259 c-4 -6 -5 -12 -2 -15 2 -3 7 2 10 11 7 17 1 20 -8 4z"/>
<path d="M2680 229 c-7 -11 -10 -23 -7 -25 2 -2 9 7 15 21 14 30 7 33 -8 4z"/>
<path d="M2715 229 c-4 -6 -5 -12 -2 -15 2 -3 7 2 10 11 7 17 1 20 -8 4z"/>
<path d="M5560 220 c0 -5 5 -10 11 -10 5 0 7 5 4 10 -3 6 -8 10 -11 10 -2 0
-4 -4 -4 -10z"/>
<path d="M2735 199 c-4 -6 -5 -12 -2 -15 2 -3 7 2 10 11 7 17 1 20 -8 4z"/>
<path d="M5570 186 c0 -10 9 -16 21 -16 24 0 21 23 -4 28 -10 2 -17 -3 -17
-12z"/>
<path d="M5090 145 c0 -8 5 -15 10 -15 6 0 10 7 10 15 0 8 -4 15 -10 15 -5 0
-10 -7 -10 -15z"/>
<path d="M3032 85 c-7 -15 -11 -30 -8 -32 7 -7 28 36 24 49 -2 6 -9 -2 -16
-17z"/>
<path d="M5656 31 c-4 -7 -5 -15 -2 -18 9 -9 19 4 14 18 -4 11 -6 11 -12 0z"/>
</g>
</svg>
